<svg id="Layer_1" data-name="Layer 1" xmlns="http://www.w3.org/2000/svg" viewBox="0 0 1846 1196"><defs><style>.cls-1{fill:#cee3f8;}.cls-2{fill:#f7f7f7;}.cls-3{fill:#3a3a3a;}.cls-4{fill:#5898cc;}.cls-5{fill:none;}.cls-6{fill:#ff4500;}</style></defs><title>appArtboard 1</title><rect class="cls-1" width="1844.87" height="1194.91"/><path class="cls-2" d="M1032.12,403.09a8.28,8.28,0,0,1,2.41-.56,9,9,0,0,1,.91,0,11.4,11.4,0,0,1,4.91,1.12,10.37,10.37,0,0,1,2,1.25,9.59,9.59,0,0,1,2.08,2.34,8.86,8.86,0,0,1,.87,1.81,11.15,11.15,0,0,1,.58,4.85,11.4,11.4,0,0,1-.6,2.83,9.77,9.77,0,0,1-1.17,2.38,6.54,6.54,0,0,1-1.55,1.63,2.73,2.73,0,0,1-.3.21c-3.23,2-8.45-.26-11.4-5a1.62,1.62,0,0,1-.1-.18,13.45,13.45,0,0,1-1.79-4.68,9.39,9.39,0,0,1,.29-4.88,5.67,5.67,0,0,1,1.14-1.9,4.53,4.53,0,0,1,.95-.8,5.58,5.58,0,0,1,.77-.4Z"/><path class="cls-2" d="M1027.1,417.45q.17.3.36.6c3,4.79,7.76,7.59,12.11,7.59a9,9,0,0,0,4-.92,28.38,28.38,0,0,1,.5,5.32c0,12.2-7.71,23-19.48,29.54l-.67.37c-.62.33-1.25.65-1.88.95l-1.14.53-.69.3a55.21,55.21,0,0,1-22,4.43,56.2,56.2,0,0,1-17.9-2.87c-.85-.29-1.68-.59-2.5-.92q-1.74-.67-3.39-1.47l-.48-.24c-.6-.29-1.2-.6-1.78-.92-.38-.21-.76-.42-1.13-.64l-.26-.15-.45-.27c-.94-.57-1.84-1.17-2.72-1.79a40.18,40.18,0,0,1-8.44-8,35.12,35.12,0,0,1-2.82-4.21,29.27,29.27,0,0,1,.49-30.15c.36-.6.74-1.18,1.15-1.76s.81-1.15,1.25-1.7a43.3,43.3,0,0,1,16.29-12.42c.63-.29,1.28-.56,1.93-.82h0c.64-.26,1.27-.51,1.93-.73a54.63,54.63,0,0,1,13.53-3l-.56,3.94a2,2,0,0,0,1.69,2.27l.29,0a2,2,0,0,0,2-1.72l.68-4.74h1.21c1.63,0,3.23.07,4.82.2a52.66,52.66,0,0,1,24,7.86,9.17,9.17,0,0,0-1.49,2.53,13.77,13.77,0,0,0-.39,8.29A17.77,17.77,0,0,0,1027.1,417.45Zm-25.83,13.25a8.77,8.77,0,0,0,0-1,6.18,6.18,0,0,0-.07-.62c-.59-4.2-3.41-7.39-6.8-7.39-3.83,0-6.92,4-6.92,9a10.55,10.55,0,0,0,.06,1.13s0,0,0,.05a9.33,9.33,0,0,0,.42,2.14,9.22,9.22,0,0,0,.74,1.83h0a6.64,6.64,0,0,0,5.69,3.89c3,0,5.58-2.52,6.52-6a3.9,3.9,0,0,0,.14-.59,9,9,0,0,0,.21-1.38C1001.25,431.4,1001.27,431.05,1001.27,430.7Zm-6,22.41a2,2,0,0,0-1.94-3.5,20.33,20.33,0,0,1-15.3.92l-.39-.14c-.59-.21-1.18-.45-1.78-.73l-.2-.1c-.45-.22-.87-.45-1.28-.7a3.24,3.24,0,0,1-.35-.21,19.39,19.39,0,0,1-6.5-6.66,2,2,0,1,0-3.56,1.83,23.21,23.21,0,0,0,8.51,8.58l.4.22c.34.19.68.37,1,.54l.42.19a18,18,0,0,0,1.79.75l.43.16a24.15,24.15,0,0,0,18.71-1.15ZM967.8,433.86c3.6,0,6.52-3.81,6.52-8.52a9.83,9.83,0,0,0-2.08-6.23,6.45,6.45,0,0,0-1.86-1.58h0a5.08,5.08,0,0,0-5.06,0,6.29,6.29,0,0,0-1.88,1.56,9.77,9.77,0,0,0-2.14,6.3C961.29,430.05,964.21,433.86,967.8,433.86Z"/><path class="cls-3" d="M943.09,480.55c.85.06,1.74.07,2.67.05a45.3,45.3,0,0,0,13-2.58,48.6,48.6,0,0,0,8.87-4,91.51,91.51,0,0,1,1.75-11.34c-1-.56-1.95-1.16-2.88-1.78a46.06,46.06,0,0,0-12.71,2.55,48.54,48.54,0,0,0-9.38,4.29h0a31.31,31.31,0,0,0-3.75,2.62c-3.5,2.85-5,5.6-4.49,7.24.47,1.39,2.5,2.4,5.52,2.8h0C942.16,480.47,942.61,480.52,943.09,480.55Zm87.76-64.62c3,4.72,8.17,7,11.4,5a2.73,2.73,0,0,0,.3-.21,6.54,6.54,0,0,0,1.55-1.63,9.77,9.77,0,0,0,1.17-2.38,11.4,11.4,0,0,0,.6-2.83,11.15,11.15,0,0,0-.58-4.85,8.86,8.86,0,0,0-.87-1.81,9.59,9.59,0,0,0-2.08-2.34,10.37,10.37,0,0,0-2-1.25,11.4,11.4,0,0,0-4.91-1.12,9,9,0,0,0-.91,0,8.28,8.28,0,0,0-2.41.56h0a5.58,5.58,0,0,0-.77.4,4.53,4.53,0,0,0-.95.8,5.67,5.67,0,0,0-1.14,1.9,9.39,9.39,0,0,0-.29,4.88,13.45,13.45,0,0,0,1.79,4.68A1.62,1.62,0,0,0,1030.85,415.93ZM994.7,533.61a11.56,11.56,0,0,0,1.66.19H997a13.56,13.56,0,0,0,1.92-.14,16,16,0,0,0,7.34-3.22,24,24,0,0,0,2.56-2.24c.62-.63,1.22-1.31,1.81-2s1-1.25,1.46-1.92a48.29,48.29,0,0,0,5.49-10.52c-4.13-1.44-7.41-7.25-8.85-15.35-.15-.83-.28-1.68-.38-2.56a52.64,52.64,0,0,1-.41-5.33c0-.55,0-1.11,0-1.67,0-8.54,1.77-15.83,4.6-20.35a59.41,59.41,0,0,1-11.08,1.59c-1,.05-2.09.08-3.15.08-.8,0-1.6,0-2.39,0a60.45,60.45,0,0,1-14.44-2.32c-.5-.14-1-.29-1.48-.45s-1.27-.42-1.89-.64c-.38-.13-.76-.28-1.13-.42l-.74-.29c-.89-.35-1.76-.73-2.62-1.12-.17-.08-.34-.16-.5-.25q-.66,3.11-1.09,6.41c-.11.91-.22,1.83-.31,2.76s-.16,1.72-.22,2.59q-.25,3.48-.26,7.09,0,3.86.29,7.56c.85,11,3.51,20.77,7.37,28.22.37.71.75,1.39,1.13,2s.88,1.47,1.34,2.15c3.18,4.76,6.94,8.1,11,9.55a15.31,15.31,0,0,0,2,.55Zm-22.45-73.87c.58.32,1.18.63,1.78.92l.48.24q1.65.8,3.39,1.47c.82.33,1.65.63,2.5.92a56.2,56.2,0,0,0,17.9,2.87,55.21,55.21,0,0,0,22-4.43l.69-.3,1.14-.53c.63-.3,1.26-.62,1.88-.95l.67-.37c11.77-6.54,19.48-17.34,19.48-29.54a28.38,28.38,0,0,0-.5-5.32,9,9,0,0,1-4,.92c-4.35,0-9.11-2.8-12.11-7.59q-.2-.3-.36-.6a17.77,17.77,0,0,1-1.87-4.65,13.77,13.77,0,0,1,.39-8.29,9.17,9.17,0,0,1,1.49-2.53,52.66,52.66,0,0,0-24-7.86c-1.59-.13-3.19-.2-4.82-.2h-1.21l-.68,4.74a2,2,0,0,1-2,1.72l-.29,0a2,2,0,0,1-1.69-2.27l.56-3.94a54.63,54.63,0,0,0-13.53,3c-.66.22-1.29.47-1.93.73h0c-.65.26-1.3.53-1.93.82a43.3,43.3,0,0,0-16.29,12.42c-.44.55-.86,1.12-1.25,1.7s-.79,1.16-1.15,1.76a29.27,29.27,0,0,0-.49,30.15,35.12,35.12,0,0,0,2.82,4.21,40.18,40.18,0,0,0,8.44,8c.88.62,1.78,1.22,2.72,1.79l.45.27.26.15C971.49,459.32,971.87,459.53,972.25,459.74Zm308,62.31-93,43.15a2.51,2.51,0,0,0-1.45,2.27v49.08l-251.47,116a33.14,33.14,0,0,1-27.8,0l-65.91-30.43,182.73-84.65a20.93,20.93,0,0,0,7.89,1.42c7.7,0,13.51-3.44,13.51-8s-5.81-8-13.51-8-13.52,3.44-13.52,8a5.55,5.55,0,0,0,1,3.19L834.57,699.38l-37.34-17.24,233-108,54,23.87a2.47,2.47,0,0,0,2.06,0l38.1-17.74a20.53,20.53,0,0,0,8.25,1.58c7.7,0,13.51-3.44,13.51-8,0-4.16-4.82-7.38-11.51-7.92v5c4.1.43,6.51,2.1,6.51,2.9s-3.21,3-8.51,3-8.52-2.09-8.52-3,2.41-2.46,6.5-2.9h0v-5h0c-6.69.55-11.5,3.76-11.5,7.92a5.4,5.4,0,0,0,.89,3l-34.8,16.2-54-23.87a2.51,2.51,0,0,0-2.06,0L791.28,679.4l-15.14-7,121.37-56.5a20.69,20.69,0,0,0,8.24,1.57c7.7,0,13.51-3.44,13.51-8,0-4.16-4.83-7.38-11.51-7.92h0v5h0c4.09.43,6.51,2.1,6.51,2.9s-3.22,3-8.51,3-8.52-2.08-8.52-3,2.42-2.46,6.51-2.89v-5c-6.69.54-11.51,3.77-11.51,7.92a5.4,5.4,0,0,0,.89,2.95L770.19,669.66l-87.58-40.44h0L728.38,608a19.87,19.87,0,0,0,8.81,1.85c7.7,0,13.51-3.44,13.51-8s-5.81-8-13.51-8-13.52,3.44-13.52,8a5.3,5.3,0,0,0,.64,2.52h0l-47.69,22.07-49.71-23,48.79-22.71a19.87,19.87,0,0,0,8.81,1.85c7.7,0,13.51-3.44,13.51-8s-5.81-8-13.51-8-13.52,3.44-13.52,8a5.3,5.3,0,0,0,.64,2.52L621,600.77l-59.2-27.34L687.35,515l29.84,13.65a2.52,2.52,0,0,0,1,.22,2.4,2.4,0,0,0,1-.23l64.13-29.73a21.33,21.33,0,0,0,7,1.1c7.7,0,13.51-3.44,13.51-8s-5.81-8-13.51-8-13.52,3.44-13.52,8a5.71,5.71,0,0,0,1.45,3.72h0L718.22,523.6l-24.9-11.4,53.62-25a2.5,2.5,0,0,0,1.44-2.27V435.15l74.54-34.39,30.62-14.13,52.8-24.36a33.16,33.16,0,0,1,27.81,0l31,14.31-58.43,27.09a20.39,20.39,0,0,0-8.39-1.64c-7.71,0-13.52,3.44-13.52,8s5.81,8,13.52,8,13.52-3.44,13.52-8a5.44,5.44,0,0,0-.82-2.84l60.08-27.86,22.54,10.41,3-21.28a2,2,0,0,1,2.62-1.61l18.64,6.32a11.67,11.67,0,1,1-.23,4.15l-17.41-5.91-2.64,18.51h.64a57.22,57.22,0,0,1,32.19,9.52c4.65-2,11.52-.92,15.75,3.61a13.21,13.21,0,0,1,1.57,2,12.67,12.67,0,0,1,1.12,2.24,14.61,14.61,0,0,1,1,5.38,15.6,15.6,0,0,1-.27,2.91l60,27.72L1030.63,480h0a49.67,49.67,0,0,1,.58,5.24l84.45-39.16,10.88,5-70.78,32.83a2.5,2.5,0,0,0,1,4.77,2.44,2.44,0,0,0,1-.24l24.33-11.28v47.4l-134,62.51h0a22.42,22.42,0,0,0-6.07-.79c-7.71,0-13.52,3.44-13.52,8s5.81,8,13.52,8,13.52-3.44,13.52-8a5.91,5.91,0,0,0-1.95-4.25l132-61.61a2.53,2.53,0,0,0,1.44-2.27V474.86l31.89-14.77,13.43-6.23,14,6.44h0l1,.47ZM1037,375.87a7.7,7.7,0,1,0-7.69,7.69A7.7,7.7,0,0,0,1037,375.87Zm-9.69,113c0-.25,0-.5,0-.74s0-.7,0-1a50,50,0,0,0-.44-5.31l-.09-.66a32,32,0,0,0-2.63-9,0,0,0,0,0,0,0,13.7,13.7,0,0,0-1.64-2.64,7.37,7.37,0,0,0-.86-.89,3.12,3.12,0,0,0-2-.92c-3.2,0-7.65,8-7.69,21.09v.17c0,1.85.09,3.59.25,5.23.14,1.4.32,2.71.55,3.94,1.3,6.92,3.94,11.21,6.19,12a1.9,1.9,0,0,0,.46.1l.24,0a2.66,2.66,0,0,0,1.47-.51,10.75,10.75,0,0,0,3.37-4.67,28,28,0,0,0,1.37-3.93A46.47,46.47,0,0,0,1027.32,488.84Zm-3.44,49.7a7.79,7.79,0,0,0-2.87-6.46,15.11,15.11,0,0,0-6.94-3.48,28.26,28.26,0,0,1-5.6,5.19,20.19,20.19,0,0,1-7.74,3.62,36.74,36.74,0,0,0,10.09,2.33C1018.54,540.57,1023.32,539.43,1023.88,538.54Zm-44.58-3.72a42.1,42.1,0,0,0,8,.17c-4.06-2.47-7.7-6.46-10.73-11.62-5.28.59-9.39,3.56-9.82,7.54C967.08,531.83,971.52,534,979.3,534.82ZM971.92,396a10.14,10.14,0,0,0-4-.81,10.29,10.29,0,0,0-10.28,10.27,10.9,10.9,0,0,0,.08,1.29A47.3,47.3,0,0,1,971.92,396Zm-28.66,60.3,12.3-5.71a37,37,0,0,1-2.75-4.24l-10.09,4.68-1.87-18.13a5.14,5.14,0,0,0-7.38-4.09l-7.28,3.72,4.94,2h0l4.1-2.1a1.09,1.09,0,0,1,1,0,1.13,1.13,0,0,1,.58.88l2,19.5-62.45,29a2.5,2.5,0,0,0,1.05,4.77,2.46,2.46,0,0,0,1-.23l60.89-28.23.78,7.61a40.08,40.08,0,0,1,3.79-2.31Zm5.7,74.95a2,2,0,0,0,1.79-2.2l-4.58-44.51h0l-1.36,0c-.67,0-1.33,0-2-.06l-.69-.06,4.63,45A2,2,0,0,0,949,531.28Zm-18.12-88.21a2.34,2.34,0,0,0,1.45-2.23,2.25,2.25,0,0,0-1.45-2.13L926.39,437l-4.95-2-4.56-1.81a14.7,14.7,0,0,0-11.19.15l-12.92,5.47a.69.69,0,0,0,0,1.28l22.76,9a1.44,1.44,0,0,0,1.08,0h0Zm-80,130.51c0-4.14-4.8-7.36-11.46-7.91h-4c-6.72.52-11.57,3.75-11.57,7.92a5.56,5.56,0,0,0,1.15,3.34l-84.38,39.13a20.8,20.8,0,0,0-7.85-1.41c-7.71,0-13.52,3.44-13.52,8s5.81,8,13.52,8,13.51-3.44,13.51-8a5.46,5.46,0,0,0-1.06-3.21l84.48-39.18a21,21,0,0,0,7.66,1.33C845,581.58,850.85,578.14,850.85,573.58Z"/><path class="cls-2" d="M1012.53,468.49c-2.83,4.52-4.6,11.81-4.6,20.35,0,.56,0,1.12,0,1.67a52.64,52.64,0,0,0,.41,5.33c.1.88.23,1.73.38,2.56a8.29,8.29,0,0,1-3.69-1,8.45,8.45,0,0,1-4.41-7.8l.81-19.49A59.41,59.41,0,0,0,1012.53,468.49Z"/><path class="cls-4" d="M972.23,491.27a3.11,3.11,0,0,0,3.73-2.91l.74-16.17.15-3.25.12-2.65c.37.14.75.29,1.13.42.62.22,1.25.44,1.89.64s1,.31,1.48.45l.76,7.37a2.06,2.06,0,0,0,1.65,1.81l8,1.59a2.07,2.07,0,0,0,2.42-1.54l1.66-6.91c.79,0,1.59,0,2.39,0,1.06,0,2.11,0,3.15-.08l-.81,19.49a8.45,8.45,0,0,0,4.41,7.8,8.29,8.29,0,0,0,3.69,1c1.44,8.1,4.72,13.91,8.85,15.35a48.29,48.29,0,0,1-5.49,10.52c-.47.67-1,1.31-1.46,1.92s-1.19,1.4-1.81,2a24,24,0,0,1-2.56,2.24,16,16,0,0,1-7.34,3.22,13.56,13.56,0,0,1-1.92.14h-.65a11.56,11.56,0,0,1-1.66-.19l-.33-.05a15.31,15.31,0,0,1-2-.55c-4.09-1.45-7.85-4.79-11-9.55-.46-.68-.9-1.4-1.34-2.15s-.76-1.34-1.13-2C975,511.81,972.37,502,971.52,491A2.68,2.68,0,0,0,972.23,491.27Z"/><path class="cls-2" d="M976,488.36a3.11,3.11,0,0,1-3.73,2.91,2.68,2.68,0,0,1-.71-.23q-.28-3.71-.29-7.56,0-3.62.26-7.09c.06-.87.13-1.74.22-2.59s.2-1.85.31-2.76q.43-3.3,1.09-6.41c.16.09.33.17.5.25.86.39,1.73.77,2.62,1.12l.74.29-.12,2.65-.15,3.25Z"/><path class="cls-2" d="M966.53,460.92c.93.62,1.89,1.22,2.88,1.78A91.51,91.51,0,0,0,967.66,474a48.6,48.6,0,0,1-8.87,4,45.3,45.3,0,0,1-13,2.58c-.93,0-1.82,0-2.67-.05-.48,0-.93-.08-1.37-.13h0c-3-.4-5.05-1.41-5.52-2.8-.56-1.64,1-4.39,4.49-7.24a31.31,31.31,0,0,1,3.75-2.62h0a48.54,48.54,0,0,1,9.38-4.29A46.06,46.06,0,0,1,966.53,460.92Z"/><path class="cls-3" d="M613.24,261.45a10.35,10.35,0,0,0-9.88-.79l-33.44,14.92a6.73,6.73,0,0,0-4,6.15V324a6.76,6.76,0,0,0,6.73,6.74,6.78,6.78,0,0,0,2.84-.63l25-11.58C610.19,314,618,301.57,618,294.23V270.14A10.33,10.33,0,0,0,613.24,261.45Zm1.16,32.78c0,6.14-7.23,17.27-15.35,21L574,326.83a3.18,3.18,0,0,1-4.52-2.88V281.73a3.19,3.19,0,0,1,1.88-2.91l33.44-14.91a7,7,0,0,1,2.79-.59,6.87,6.87,0,0,1,3.72,1.1,6.8,6.8,0,0,1,3.1,5.72Z"/><ellipse class="cls-3" cx="898.32" cy="410.04" rx="8.52" ry="3"/><path class="cls-3" d="M1031.14,613.9c-5.3,0-8.52-2.09-8.52-3s3.22-3,8.52-3,8.51,2.08,8.51,3S1036.44,613.9,1031.14,613.9Z"/><path class="cls-3" d="M1319.76,540.31l-33.6-15.51-95.46,44.27v45.17l129.06-59.54A7.93,7.93,0,0,0,1319.76,540.31ZM835.39,565.66v5m4-5v5M532.82,534.61a14,14,0,0,0,0,25.45l23,10.63,187.56-87.31V437.46ZM1021,532.08a15.11,15.11,0,0,0-6.94-3.48,28.26,28.26,0,0,1-5.6,5.19,20.19,20.19,0,0,1-7.74,3.62,36.74,36.74,0,0,0,10.09,2.33c7.72.83,12.5-.31,13.06-1.2A7.79,7.79,0,0,0,1021,532.08Zm-44.41-8.71c-5.28.59-9.39,3.56-9.82,7.54.3.92,4.74,3.08,12.52,3.91a42.1,42.1,0,0,0,8,.17C983.27,532.52,979.63,528.53,976.6,523.37Zm-30.43-38.8h0l-1.36,0c-.67,0-1.33,0-2-.06l-.69-.06,4.63,45a2,2,0,1,0,4-.41Zm21.77-89.35a10.29,10.29,0,0,0-10.28,10.27,10.9,10.9,0,0,0,.08,1.29A47.3,47.3,0,0,1,971.92,396,10.14,10.14,0,0,0,967.94,395.22ZM739.5,621a15.26,15.26,0,0,0-6.76-1.4c-5.3,0-8.52,2.09-8.52,3s3.22,3,8.52,3,8.51-2.08,8.51-3C741.25,622.24,740.64,621.62,739.5,621Zm-2.31-22.18c-5.3,0-8.52,2.08-8.52,3s3.22,3,8.52,3,8.51-2.09,8.51-3S742.49,598.86,737.19,598.86ZM790.43,489c-5.3,0-8.52,2.08-8.52,3s3.22,3,8.52,3,8.51-2.09,8.51-3S795.73,489,790.43,489Zm45,76.67v5m4-5v5m-4-5v5m4-5v5m0,0c4.06.44,6.45,2.1,6.45,2.89s-3.22,3-8.52,3-8.51-2.08-8.51-3,2.44-2.49,6.58-2.9m112.29,21.5a16.4,16.4,0,0,0-5.53-.88c-5.3,0-8.52,2.09-8.52,3s3.22,3,8.52,3,8.52-2.08,8.52-3C950.68,593.78,949.61,592.86,947.69,592.18Z"/><path class="cls-3" d="M1122.14,943.43c5.3,0,8.52,2.08,8.52,3s-3.22,3-8.52,3-8.52-2.09-8.52-3S1116.84,943.43,1122.14,943.43Z"/><path class="cls-3" d="M927.42,819.16c5.3,0,8.52,2.09,8.52,3s-3.22,3-8.52,3-8.51-2.08-8.51-3S922.12,819.16,927.42,819.16Z"/><path class="cls-3" d="M723.68,879.8c-.73-.45-1.12-.92-1.12-1.23,0-.92,3.22-3,8.52-3s8.51,2.08,8.51,3-3.21,3-8.51,3a14.66,14.66,0,0,1-7.22-1.65Z"/><path class="cls-3" d="M719,978c0-.92,3.22-3,8.52-3s8.51,2.08,8.51,3-3.21,3-8.51,3S719,978.93,719,978Z"/><path class="cls-3" d="M920.37,969.24c-5.3,0-8.51-2.08-8.51-3s3.21-3,8.51-3,8.52,2.09,8.52,3S925.67,969.24,920.37,969.24Z"/><path class="cls-3" d="M1013.3,990.37c0,.91-3.22,3-8.52,3s-8.51-2.09-8.51-3,3.21-3,8.51-3S1013.3,989.45,1013.3,990.37Z"/><path class="cls-3" d="M1319.76,957.57,940.94,1132.35V1023.17L997,997h0a20.86,20.86,0,0,0,7.77,1.38c7.71,0,13.52-3.44,13.52-8s-5.81-8-13.52-8-13.51,3.44-13.51,8a5.49,5.49,0,0,0,1.11,3.27l-51.44,24V996l9.91-4.67a20.67,20.67,0,0,0,8.1,1.52c7.7,0,13.51-3.44,13.51-8,0-4.16-4.82-7.38-11.51-7.92v5c4.1.43,6.51,2.1,6.51,2.9s-3.21,3-8.51,3-8.52-2.09-8.52-3,2.42-2.47,6.52-2.9v-5c-6.7.54-11.52,3.76-11.52,7.92a5.44,5.44,0,0,0,1,3.05l-9,4.25a2.52,2.52,0,0,0-1.43,2.27v140.28l-1.71.79a33.17,33.17,0,0,1-27.8,0l-51.56-23.81,66.56-31a2.49,2.49,0,0,0,1.44-2.27V974.11c6.44-.65,11-3.82,11-7.87,0-4.56-5.81-8-13.52-8s-13.51,3.44-13.51,8c0,4,4.58,7.22,11,7.87v102.68l-69,32.1-73.08-33.74,29.2-13.54a20.41,20.41,0,0,0,8.58,1.72c7.7,0,13.51-3.44,13.51-8,0-4.16-4.83-7.38-11.52-7.92v5c4.1.43,6.52,2.1,6.52,2.9s-3.22,3-8.51,3-8.52-2.08-8.52-3,2.42-2.46,6.51-2.89v-5c-6.69.54-11.51,3.77-11.51,7.92a5.41,5.41,0,0,0,.74,2.71l-31,14.36-92.45-42.69,101.89-47.43a21.82,21.82,0,0,0,6.79,1c7.71,0,13.52-3.44,13.52-8,0-4.11-4.72-7.31-11.31-7.9v5c4,.46,6.31,2.09,6.31,2.87s-3.22,3-8.52,3-8.51-2.09-8.51-3,2.5-2.52,6.72-2.92v-5c-6.79.48-11.72,3.73-11.72,7.93a5.78,5.78,0,0,0,1.57,3.87L671.49,1027h0l-21.85-10.1,69.65-32.42h0a20.71,20.71,0,0,0,8.25,1.57c7.7,0,13.51-3.44,13.51-8s-5.81-8-13.51-8S714,973.46,714,978a5.4,5.4,0,0,0,.89,3l-71.23,33.16-81-37.42,98.43-45.83a2.5,2.5,0,0,0-2.11-4.53L556.67,974l-13.4-6.19,179-83a20,20,0,0,0,8.77,1.82c7.7,0,13.51-3.44,13.51-8s-5.81-8-13.51-8-13.52,3.44-13.52,8a5.36,5.36,0,0,0,.66,2.56L537.33,965h0l-4.51-2.08a14,14,0,0,1,0-25.46L906.34,765.15a33.16,33.16,0,0,1,27.81,0l55.09,25.44-53.91,25a20.84,20.84,0,0,0-7.91-1.43c-7.7,0-13.51,3.44-13.51,8s5.81,8,13.51,8,13.52-3.44,13.52-8a5.47,5.47,0,0,0-1-3.17l55.28-25.65,37.33,17.23-60.39,28.12a2.5,2.5,0,1,0,2.11,4.53l64.23-29.9,10.08,4.66L870.2,901.21a21.58,21.58,0,0,0-4.06-.71v5a15.06,15.06,0,0,1,3.27.7l.26.08c1.92.67,3,1.59,3,2.12,0,.91-3.22,3-8.52,3s-8.51-2.09-8.51-3,2.41-2.47,6.51-2.9v-5c-6.69.54-11.51,3.76-11.51,7.92,0,4.56,5.81,8,13.51,8s13.52-3.44,13.52-8a5.87,5.87,0,0,0-1.95-4.25l178.79-83.45,110.86,51.19v51.6l-35,16.13a1.77,1.77,0,0,0-.33.19,21,21,0,0,0-7.84-1.4c-7.7,0-13.52,3.44-13.52,8s5.82,8,13.52,8,13.52-3.44,13.52-8a5.48,5.48,0,0,0-1.09-3.25l34.34-15.8a2.51,2.51,0,0,0,1.45-2.27v-50.9l128.83,59.48L1068.82,1041.2a21.7,21.7,0,0,0-4.49-.74v5a15.65,15.65,0,0,1,3.64.71l.29.1c1.92.68,3,1.6,3,2.12,0,.92-3.22,3-8.52,3s-8.51-2.08-8.51-3c0-.76,2.26-2.36,6.11-2.84v-5c-6.47.63-11.1,3.81-11.1,7.88,0,4.56,5.81,8,13.51,8s13.52-3.44,13.52-8a5.87,5.87,0,0,0-2-4.25l230.82-107.72,14.63,6.75A7.92,7.92,0,0,1,1319.76,957.57Z"/><path class="cls-3" d="M1254.7,631.29c0,.92-3.22,3-8.51,3s-8.52-2.08-8.52-3,3.22-3,8.52-3S1254.7,630.37,1254.7,631.29Z"/><path class="cls-3" d="M1303.46,628.91c0,.91-3.22,3-8.52,3s-8.51-2.09-8.51-3,3.21-3,8.51-3S1303.46,628,1303.46,628.91Z"/><path class="cls-3" d="M970.72,734.89a14,14,0,0,0,0,25.47l2.17,1h0l63.27-29.45V704.69Zm570.6,87.64c-5.3,0-8.51,2.08-8.51,3s3.21,3,8.51,3,8.52-2.08,8.52-3S1546.62,822.53,1541.32,822.53Zm89.07-140.69-63.7-29.4-34.07,15.86v58.89l97.79-45.34ZM1111,711c-5.29,0-8.51,2.09-8.51,3s3.22,3,8.51,3,8.52-2.08,8.52-3S1116.34,711,1111,711Zm634.57,24-56.26-26V757.4a2.49,2.49,0,0,1-1.44,2.26l-134.16,62.62a5.48,5.48,0,0,1,1.09,3.25c0,4.56-5.81,8-13.52,8s-13.51-3.44-13.51-8,5.81-8,13.51-8a20.87,20.87,0,0,1,7.78,1.38l135.25-63.1v-49l-48-22.16-141,65.36a5.47,5.47,0,0,1,.88,2.95c0,4.56-5.81,8-13.51,8s-13.52-3.44-13.52-8,5.81-8,13.52-8a20.48,20.48,0,0,1,8.24,1.58h0l36.62-17V666.7a2.5,2.5,0,0,1,1.45-2.26l31.68-14.75-120.27-55.53-37.79,17.59a2.46,2.46,0,0,1-1,.23,2.5,2.5,0,0,1-1.06-4.76l34-15.8-48.31-22.31-127.48,59.12a5.46,5.46,0,0,1,1,3.06c0,4.56-5.81,8-13.51,8s-13.52-3.44-13.52-8,5.81-8,13.52-8a20.76,20.76,0,0,1,8.08,1.5l126-58.43-5.66-2.61a39.27,39.27,0,0,0-32.93,0L1041.17,702.39v31.12a2.5,2.5,0,0,1-1.44,2.27l-60.88,28.34L1107,823.26v-26L1084,787a20.58,20.58,0,0,1-8.16,1.54c-7.71,0-13.52-3.44-13.52-8,0-4.16,4.83-7.38,11.51-7.92h0v5h0c-4.09.43-6.51,2.1-6.51,2.9s3.22,3,8.52,3,8.51-2.08,8.51-3-2.41-2.47-6.51-2.9v-5c6.69.54,11.51,3.76,11.51,7.92a5.51,5.51,0,0,1-.9,3l22,9.88a2.49,2.49,0,0,1,1.48,2.28v29.93l9.9,4.57,93.84-43.52a5.41,5.41,0,0,1-.63-2.52,5.52,5.52,0,0,1,.87-2.94l-48.79-21.94h0a20.64,20.64,0,0,1-8,1.46c-7.71,0-13.52-3.44-13.52-8s5.81-8,13.52-8,13.51,3.44,13.51,8a5.47,5.47,0,0,1-1,3.11l48.66,21.88a19.24,19.24,0,0,1,6.31-1.49v5c-4.15.42-6.6,2.11-6.6,2.91,0,.32.38.78,1.11,1.23a14.18,14.18,0,0,0,7.4,1.77c5.3,0,8.52-2.08,8.52-3s-2.39-2.44-6.42-2.89h0v-5h0c6.64.56,11.42,3.77,11.42,7.91,0,4.57-5.81,8-13.52,8a20.06,20.06,0,0,1-8.83-1.85l-91.94,42.63,16.37,7.57h0l207.53-96.24V733.06c-6.44-.65-11-3.82-11-7.87s4.9-7.43,11.67-7.93v5c-4.19.4-6.67,2.11-6.67,2.91s3.22,3,8.52,3,8.51-2.08,8.51-3-2.36-2.42-6.36-2.88v-5c6.61.58,11.36,3.79,11.36,7.91s-4.58,7.22-11,7.87v12.75a2.49,2.49,0,0,1-1.45,2.26l-205.13,95.12,87.76,40.52,94.35-43.92a5.78,5.78,0,0,1-1.57-3.87c0-4.56,5.81-8,13.52-8s13.52,3.44,13.52,8-5.82,8-13.52,8a21.82,21.82,0,0,1-6.79-1l-93.57,43.56,11.51,5.31,160.2-74.57a5.82,5.82,0,0,1-1.69-4c0-4.12,4.75-7.34,11.37-7.9v5c-4,.45-6.38,2.1-6.38,2.88s3.22,3,8.52,3,8.51-2.08,8.51-3-2.35-2.42-6.36-2.88l-.29,0v-5l.29,0c6.61.57,11.37,3.78,11.37,7.91,0,4.56-5.81,8-13.51,8a21.55,21.55,0,0,1-6.74-1,2.36,2.36,0,0,1-.68.47l-158.66,73.85,39.21,18.11,286.71-133.46a5.78,5.78,0,0,1-1.66-4c0-4.16,4.82-7.38,11.51-7.92v5c-4.1.43-6.51,2.1-6.51,2.9s3.21,3,8.51,3,8.52-2.09,8.52-3-2.42-2.47-6.52-2.9v-5c6.69.54,11.52,3.76,11.52,7.92,0,4.56-5.81,8-13.52,8a21.78,21.78,0,0,1-6.61-1l-286,133.13,35.31,16.3a39.3,39.3,0,0,0,32.93,0l370.92-171.13A14,14,0,0,0,1745.61,735Zm-450.67-98.13a21,21,0,0,1-7.66-1.33l-163.43,75.79a5.43,5.43,0,0,1,.71,2.66c0,4.56-5.81,8-13.52,8s-13.51-3.44-13.51-8,5.81-8,13.51-8a20.21,20.21,0,0,1,8.65,1.76l162.89-75.54a5.56,5.56,0,0,1-1.15-3.34c0-4.56,5.81-8,13.51-8s13.52,3.44,13.52,8S1302.65,636.91,1294.94,636.91ZM1111,711c-5.29,0-8.51,2.09-8.51,3s3.22,3,8.51,3,8.52-2.08,8.52-3S1116.34,711,1111,711Zm378.7,40.41-.13-.07a15,15,0,0,0-6.86-1.46c-5.3,0-8.52,2.09-8.52,3s3.22,3,8.52,3,8.51-2.08,8.51-3C1491.26,752.54,1490.73,752,1489.74,751.44Zm-145.55,81.48c-5.3,0-8.52,2.08-8.52,3s3.22,3,8.52,3,8.52-2.09,8.52-3S1349.49,832.92,1344.19,832.92Zm-185-83.24c-5.3,0-8.52,2.08-8.52,3s3.22,3,8.52,3,8.51-2.09,8.51-3S1164.47,749.68,1159.17,749.68ZM1111,711c-5.29,0-8.51,2.09-8.51,3s3.22,3,8.51,3,8.52-2.08,8.52-3S1116.34,711,1111,711Z"/><path class="cls-3" d="M228.14,788.55l-32,14.85-95.6-44.14a14,14,0,0,1,0-25.47l68.6-31.66h0l1.08-.5,57.93,26.78Z"/><path class="cls-3" d="M292.1,765.1c-5.3,0-8.52-2.08-8.52-3s3.22-3,8.52-3,8.51,2.08,8.51,3S297.4,765.1,292.1,765.1Z"/><path class="cls-3" d="M512.46,823.57c0-.92,3.21-3,8.51-3s8.52,2.08,8.52,3-3.22,3-8.52,3S512.46,824.48,512.46,823.57Z"/><path class="cls-3" d="M434.92,604.43c-5.3,0-8.51,2.09-8.51,3s3.21,3,8.51,3,8.52-2.08,8.52-3S440.22,604.43,434.92,604.43Zm368.41,96.23-68.09,31.69v24.72c6.43.65,11,3.82,11,7.87,0,4.56-5.81,8-13.51,8s-13.52-3.44-13.52-8c0-4.05,4.59-7.22,11-7.87V734.68l-57,26.54a5.29,5.29,0,0,1,.46,2.15c0,4.56-5.81,8-13.52,8s-13.51-3.44-13.51-8c0-4.16,4.82-7.38,11.51-7.92v5c-4.09.43-6.51,2.1-6.51,2.9s3.22,3,8.51,3,8.52-2.09,8.52-3-2.42-2.47-6.51-2.9h0v-5h0a18.26,18.26,0,0,1,7.23,2l62.16-28.87.21-.1,65.61-30.55L650.31,630,601.5,652.74l-.69,58.6a2.51,2.51,0,0,1-1.44,2.24l-37.28,17.35a5.3,5.3,0,0,1,.4,2c0,4.56-5.81,8-13.51,8s-13.52-3.44-13.52-8c0-4.12,4.75-7.33,11.36-7.91v5c-4,.46-6.36,2.1-6.36,2.88s3.22,3,8.52,3,8.51-2.08,8.51-3a1.34,1.34,0,0,0-.58-.85c-.1-.08-.21-.17-.33-.25a12.51,12.51,0,0,0-5.76-1.81v-5a18.15,18.15,0,0,1,7.61,2.11l37.4-17.41.69-58.6a2.49,2.49,0,0,1,1.45-2.24l46.4-21.6L537,577.71l-55.68,25.9a2.62,2.62,0,0,1-1.05.23,2.5,2.5,0,0,1-1.06-4.77L531.08,575h0l-10.22-4.72-73.41,34a5.43,5.43,0,0,1,1,3.14c0,4.57-5.81,8-13.52,8s-13.51-3.43-13.51-8,5.81-8,13.51-8a20.83,20.83,0,0,1,8,1.45l72-33.39-10.48-4.84a39.27,39.27,0,0,0-32.93,0L176.16,698.89l55.52,25.66a2.5,2.5,0,0,1,1.46,2.27v59.41l17.57-8.15v-51.3a2.5,2.5,0,0,1,1.44-2.27l132-61.61a5.87,5.87,0,0,1-1.95-4.25c0-4.16,4.82-7.38,11.51-7.92v-.41c-3.86-.53-12.36-2.17-17.21-6.62-6.39-5.86-6.92-19.81-6.94-20.4a2,2,0,0,1,2.1-2.06,34.39,34.39,0,0,1,14.78,4.59,23.43,23.43,0,0,1,3.47,2.6,22.92,22.92,0,0,1,5.81,9.31,22.69,22.69,0,0,1,5.8-9.31,23.35,23.35,0,0,1,3.47-2.59,34.28,34.28,0,0,1,14.78-4.6,2,2,0,0,1,2.1,2.06c0,.59-.55,14.54-6.94,20.4-4.85,4.45-13.36,6.09-17.22,6.62v.41c6.7.54,11.52,3.76,11.52,7.92,0,4.56-5.81,8-13.52,8a22.42,22.42,0,0,1-6.07-.79h0L255.71,728.37v47.39l23.61-10.94a5.45,5.45,0,0,1-.74-2.72c0-4.56,5.81-8,13.52-8s13.51,3.44,13.51,8-5.81,8-13.51,8a20.21,20.21,0,0,1-8.57-1.72L232.65,792l-2.18,1-28.39,13.17,74,34.19,61.66-28.59a5.45,5.45,0,0,1-.74-2.72c0-4.19,4.9-7.43,11.68-7.93v5c-4.2.4-6.68,2.11-6.68,2.91s3.22,3,8.52,3,8.51-2.08,8.51-3-2.35-2.42-6.35-2.88v-5c6.6.57,11.35,3.78,11.35,7.9,0,4.56-5.81,8-13.51,8a20.24,20.24,0,0,1-8.57-1.72l-59.91,27.78,14.22,6.56,147.76-68.78V746c-6.52-.61-11.19-3.8-11.19-7.89a5.67,5.67,0,0,1,1.5-3.78,10.66,10.66,0,0,1,4-2.74,19.3,19.3,0,0,1,6-1.4v5c-4.09.43-6.51,2.09-6.51,2.89s3.22,3,8.52,3,8.51-2.08,8.51-3-2.42-2.47-6.52-2.9v-5c6.69.54,11.52,3.76,11.52,7.92s-4.5,7.16-10.84,7.85v36.47a2.5,2.5,0,0,1-1.44,2.27L302.25,852.4l75.56,34.89,130.54-60.77a5.4,5.4,0,0,1-.89-2.95c0-4.56,5.81-8,13.51-8s13.52,3.44,13.52,8-5.81,8-13.52,8a20.69,20.69,0,0,1-8.24-1.57h0l-129,60,71.15,32.85v-46.8a2.52,2.52,0,0,1,1.44-2.27l73.35-34.44,38.49-17.85a5.46,5.46,0,0,1-.77-2.77,5.67,5.67,0,0,1,1.36-3.61,10.31,10.31,0,0,1,4-2.85,19.28,19.28,0,0,1,6-1.45v5c-4,.46-6.36,2.09-6.36,2.88s3.22,3,8.52,3,8.51-2.08,8.51-3-2.48-2.51-6.67-2.91v-5c6.77.5,11.67,3.74,11.67,7.93a5.81,5.81,0,0,1-1.67,4l35.1,15.8,236-109.88Zm-399.1-69.27c-4.42,4-5.92,11.17-6.42,14.87,3.67-.56,10.66-2,14.44-5.51,3.54-3.25,5-10.75,5.47-15.25C414.51,626,408.56,627.46,404.23,631.39Zm-17,0c-4.33-3.93-10.28-5.37-13.49-5.89.47,4.5,1.93,12,5.47,15.25,3.78,3.47,10.77,5,14.43,5.51C393.16,642.55,391.65,635.39,387.24,631.39Zm10.49,24.36v.79a2,2,0,0,1-4,0v-.79c-4.09.43-6.51,2.1-6.51,2.9,0,.52,1.07,1.44,3,2.12l.29.1a17.19,17.19,0,0,0,5.24.78c5.3,0,8.52-2.09,8.52-3S401.83,656.18,397.73,655.75Zm335,106.19c-5.3,0-8.52,2.08-8.52,3s3.22,3,8.52,3,8.51-2.09,8.51-3S738,761.94,732.74,761.94Z"/><path class="cls-3" d="M875.4,759.44,504.49,930.57a39.3,39.3,0,0,1-32.93,0l-11.65-5.38V877.66l70.53-33.13,42-19.46h0a20.38,20.38,0,0,0,8.49,1.68,21.93,21.93,0,0,0,6.52-.93l39.42,17.73a2.4,2.4,0,0,0,1,.22,2.63,2.63,0,0,0,1.06-.23L869.89,731.39l5.52,2.55A14,14,0,0,1,875.4,759.44Z"/><path class="cls-1" d="M1077.87,772.58v5h0v-5Z"/><path class="cls-5" d="M835.39,565.66v5m4-5v5"/><path class="cls-6" d="M822.89,1022.13a23.35,23.35,0,0,0-3.47,2.59,22.69,22.69,0,0,0-5.8,9.31,22.92,22.92,0,0,0-5.81-9.31,23.43,23.43,0,0,0-3.47-2.6l9.24-10.63Z"/><path class="cls-2" d="M839.17,1018.1a2,2,0,0,0-1.5-.57,34.28,34.28,0,0,0-14.78,4.6,23.35,23.35,0,0,0-3.47,2.59,22.69,22.69,0,0,0-5.8,9.31,22.92,22.92,0,0,0-5.81-9.31,23.43,23.43,0,0,0-3.47-2.6,34.39,34.39,0,0,0-14.78-4.59,2,2,0,0,0-2.1,2.06c0,.59.55,14.54,6.94,20.4,4.85,4.45,13.35,6.09,17.21,6.62v6.22a2,2,0,0,0,4,0v-6.22c3.86-.53,12.37-2.17,17.22-6.62,6.39-5.86,6.92-19.81,6.94-20.4A2,2,0,0,0,839.17,1018.1ZM797.1,1037c-3.54-3.25-5-10.75-5.47-15.25,3.21.52,9.16,2,13.49,5.89s5.92,11.16,6.41,14.87C807.87,1042,800.88,1040.51,797.1,1037Zm33,0c-3.78,3.47-10.77,5-14.44,5.51.5-3.7,2-10.85,6.42-14.87s10.28-5.37,13.49-5.89C835.13,1026.29,833.67,1033.79,830.13,1037Z"/><path class="cls-6" d="M1608.34,741.84a23.35,23.35,0,0,0-3.47,2.59,22.69,22.69,0,0,0-5.8,9.31,22.92,22.92,0,0,0-5.81-9.31,23.43,23.43,0,0,0-3.47-2.6L1599,731.2Z"/><path class="cls-2" d="M1624.62,737.81a2,2,0,0,0-1.5-.57,34.28,34.28,0,0,0-14.78,4.6,23.35,23.35,0,0,0-3.47,2.59,22.69,22.69,0,0,0-5.8,9.31,22.92,22.92,0,0,0-5.81-9.31,23.43,23.43,0,0,0-3.47-2.6,34.39,34.39,0,0,0-14.78-4.59,2,2,0,0,0-2.1,2.06c0,.59.55,14.54,6.94,20.4,4.85,4.45,13.35,6.09,17.21,6.62v6.22a2,2,0,0,0,4,0v-6.22c3.86-.53,12.37-2.17,17.22-6.62,6.39-5.86,6.92-19.81,6.94-20.4A2,2,0,0,0,1624.62,737.81Zm-42.07,18.94c-3.54-3.25-5-10.75-5.47-15.25,3.21.52,9.16,2,13.49,5.89s5.92,11.16,6.41,14.87C1593.32,761.7,1586.33,760.22,1582.55,756.75Zm33,0c-3.78,3.47-10.77,5-14.44,5.51.5-3.7,2-10.85,6.42-14.87s10.28-5.37,13.49-5.89C1620.58,746,1619.12,753.5,1615.58,756.75Z"/><path class="cls-6" d="M405,625.84a23.35,23.35,0,0,0-3.47,2.59,22.69,22.69,0,0,0-5.8,9.31,22.92,22.92,0,0,0-5.81-9.31,23.43,23.43,0,0,0-3.47-2.6l9.24-10.63Z"/><path class="cls-2" d="M421.29,621.81a2,2,0,0,0-1.5-.57,34.28,34.28,0,0,0-14.78,4.6,23.35,23.35,0,0,0-3.47,2.59,22.69,22.69,0,0,0-5.8,9.31,22.92,22.92,0,0,0-5.81-9.31,23.43,23.43,0,0,0-3.47-2.6,34.39,34.39,0,0,0-14.78-4.59,2,2,0,0,0-2.1,2.06c0,.59.55,14.54,6.94,20.4,4.85,4.45,13.35,6.09,17.21,6.62v6.22a2,2,0,0,0,4,0v-6.22c3.86-.53,12.37-2.17,17.22-6.62,6.39-5.86,6.92-19.81,6.94-20.4A2,2,0,0,0,421.29,621.81Zm-42.07,18.94c-3.54-3.25-5-10.75-5.47-15.25,3.21.52,9.16,2,13.49,5.89s5.92,11.16,6.41,14.87C390,645.7,383,644.22,379.22,640.75Zm33,0c-3.78,3.47-10.77,5-14.44,5.51.5-3.7,2-10.85,6.42-14.87s10.28-5.37,13.49-5.89C417.25,630,415.79,637.5,412.25,640.75Z"/><path class="cls-6" d="M455.67,705.47a23.43,23.43,0,0,0-3.48,2.59,22.69,22.69,0,0,0-5.8,9.31,22.92,22.92,0,0,0-5.81-9.31,23.35,23.35,0,0,0-3.46-2.6l9.24-10.63Z"/><path class="cls-2" d="M471.94,701.44a2,2,0,0,0-1.5-.57,34.25,34.25,0,0,0-14.77,4.6,23.43,23.43,0,0,0-3.48,2.59,22.69,22.69,0,0,0-5.8,9.31,22.92,22.92,0,0,0-5.81-9.31,23.35,23.35,0,0,0-3.46-2.6,34.41,34.41,0,0,0-14.79-4.59,2,2,0,0,0-1.5.57,2,2,0,0,0-.59,1.49c0,.59.55,14.54,6.94,20.4,4.84,4.45,13.34,6.09,17.2,6.62v6.22a2,2,0,0,0,4,0V730c3.86-.53,12.37-2.17,17.23-6.62,6.38-5.86,6.91-19.81,6.94-20.4A2,2,0,0,0,471.94,701.44Zm-42.07,18.94c-3.54-3.25-5-10.75-5.47-15.25,3.22.52,9.16,2,13.49,5.89s5.92,11.16,6.42,14.87C440.64,725.33,433.65,723.85,429.87,720.38Zm33,0c-3.78,3.47-10.77,5-14.44,5.51.5-3.7,2-10.85,6.42-14.87s10.29-5.37,13.49-5.89C467.9,709.63,466.44,717.13,462.9,720.38Z"/><path class="cls-6" d="M590.06,785.68a23.35,23.35,0,0,0-3.47,2.59,22.69,22.69,0,0,0-5.8,9.31,22.92,22.92,0,0,0-5.81-9.31,23.43,23.43,0,0,0-3.47-2.6L580.75,775Z"/><path class="cls-2" d="M606.34,781.65a2,2,0,0,0-1.5-.57,34.28,34.28,0,0,0-14.78,4.6,23.35,23.35,0,0,0-3.47,2.59,22.69,22.69,0,0,0-5.8,9.31,22.92,22.92,0,0,0-5.81-9.31,23.43,23.43,0,0,0-3.47-2.6,34.39,34.39,0,0,0-14.78-4.59,2,2,0,0,0-2.1,2.06c0,.59.55,14.54,6.94,20.4,4.85,4.45,13.35,6.09,17.21,6.62v6.22a2,2,0,0,0,4,0v-6.22c3.86-.53,12.37-2.17,17.22-6.62,6.39-5.86,6.92-19.81,6.94-20.4A2,2,0,0,0,606.34,781.65Zm-42.07,18.94c-3.54-3.25-5-10.75-5.47-15.25,3.21.52,9.16,2,13.49,5.89s5.92,11.16,6.41,14.87C575,805.54,568.05,804.06,564.27,800.59Zm33,0c-3.78,3.47-10.77,4.95-14.44,5.51.5-3.7,2-10.85,6.42-14.87s10.28-5.37,13.49-5.89C602.3,789.84,600.84,797.34,597.3,800.59Z"/><path class="cls-6" d="M1085.15,747.66a23.35,23.35,0,0,0-3.47,2.59,22.69,22.69,0,0,0-5.8,9.31,22.92,22.92,0,0,0-5.81-9.31,23.43,23.43,0,0,0-3.47-2.6l9.24-10.63Z"/><path class="cls-2" d="M1102,744.68v0c0-.11-.06-.22-.1-.33s0,0,0-.05a3,3,0,0,0-.16-.31,1.81,1.81,0,0,0-.28-.34,2,2,0,0,0-1.5-.57,34.28,34.28,0,0,0-14.78,4.6,23.35,23.35,0,0,0-3.47,2.59,22.69,22.69,0,0,0-5.8,9.31,22.92,22.92,0,0,0-5.81-9.31,23.43,23.43,0,0,0-3.47-2.6,34.31,34.31,0,0,0-14.78-4.59,2,2,0,0,0-1.5.57,1.9,1.9,0,0,0-.55,1,1.83,1.83,0,0,0,0,.47c0,.15,0,1.13.2,2.61a49,49,0,0,0,1.07,6.42c.13.55.27,1.1.43,1.66s.33,1.11.51,1.67.39,1.11.61,1.65a17.49,17.49,0,0,0,4.12,6.39c4.85,4.45,13.35,6.09,17.21,6.62v6.22a1.93,1.93,0,0,0,.25,1,2,2,0,0,0,3.3.32,2.29,2.29,0,0,0,.3-.5,2,2,0,0,0,.15-.78v-6.22h0a48.71,48.71,0,0,0,9.45-2.25l1.2-.46.61-.25,1.17-.53a19.75,19.75,0,0,0,4.78-3.13c6.39-5.86,6.92-19.81,6.94-20.4v-.07A2.21,2.21,0,0,0,1102,744.68Zm-42.63,17.89c-3.54-3.25-5-10.75-5.47-15.25.44.07.94.16,1.48.27a34.45,34.45,0,0,1,3.94,1.07c.59.2,1.2.43,1.81.68h0c.61.25,1.22.53,1.83.85h0a18.32,18.32,0,0,1,1.81,1,19.16,19.16,0,0,1,2.59,2c2.76,2.5,4.38,6.23,5.33,9.59a40,40,0,0,1,1.08,5.28C1070.12,767.52,1063.15,766,1059.36,762.57Zm38.4-14.37a49.56,49.56,0,0,1-.9,5.06c-.17.72-.36,1.44-.58,2.15-.16.53-.34,1.06-.53,1.58-.11.29-.22.58-.34.87a13.24,13.24,0,0,1-3,4.71c-3.78,3.47-10.77,4.95-14.44,5.51.5-3.7,2-10.85,6.42-14.87a20.89,20.89,0,0,1,4.41-3c.61-.31,1.23-.59,1.84-.85s1.23-.49,1.82-.69a33.6,33.6,0,0,1,3.36-.94c.76-.17,1.46-.3,2.06-.4C1097.83,747.6,1097.8,747.89,1097.76,748.2Z"/><path class="cls-6" d="M1090.39,877h-16v19.49a25.08,25.08,0,0,0-6.27,4.11,22.75,22.75,0,0,0-5.81,9.31,22.75,22.75,0,0,0-5.81-9.31,24.83,24.83,0,0,0-6-4V877h-16l27.84-32Z"/><path class="cls-2" d="M1060.26,948h0v-.18A1.1,1.1,0,0,0,1060.26,948Z"/><path class="cls-2" d="M1088.49,925a2,2,0,0,0-2.09-2.06c-.45,0-11,.6-18.25,7.19a19.63,19.63,0,0,0-3.93,5.07V922.51c3.8-.53,12.44-2.15,17.35-6.65,6.39-5.85,6.91-19.81,6.93-20.39a2,2,0,0,0-.59-1.49,2,2,0,0,0-1.5-.58,35.11,35.11,0,0,0-12,3.08,25.08,25.08,0,0,0-6.27,4.11,22.75,22.75,0,0,0-5.81,9.31,22.75,22.75,0,0,0-5.81-9.31,24.83,24.83,0,0,0-6-4,34.85,34.85,0,0,0-12.25-3.21,2,2,0,0,0-1.49.58,2,2,0,0,0-.6,1.49c0,.58.54,14.54,6.93,20.39,4.8,4.4,13.17,6.06,17.09,6.61v12.37a18.87,18.87,0,0,0-3.69-4.67c-7.26-6.59-17.8-7.18-18.25-7.19a2,2,0,0,0-2.09,2.06c0,.58.54,14.55,6.93,20.39,4.81,4.42,13.21,6.06,17.12,6.61v12.43a19.05,19.05,0,0,0-3.72-4.73c-7.26-6.59-17.8-7.16-18.25-7.2a2.07,2.07,0,0,0-1.49.58,2,2,0,0,0-.6,1.49c0,.6.54,14.55,6.93,20.41,4.82,4.41,13.25,6.07,17.15,6.6V994.1a19.19,19.19,0,0,0-3.75-4.78c-7.26-6.59-17.8-7.17-18.25-7.2a2,2,0,0,0-2.09,2.06c0,.61.54,14.55,6.93,20.42,4.83,4.42,13.3,6.07,17.18,6.61l0,29.32v6.36a2,2,0,0,0,4,0v-6.42l0-29.23c3.84-.55,12.39-2.18,17.26-6.63,6.39-5.87,6.91-19.81,6.93-20.42a2,2,0,0,0-2.09-2.06c-.45,0-11,.61-18.25,7.2a17.93,17.93,0,0,0-3.87,4.58V981.65c3.82-.53,12.41-2.16,17.29-6.63,6.39-5.86,6.91-19.81,6.93-20.41a2,2,0,0,0-.59-1.49,2.11,2.11,0,0,0-1.5-.58c-.45,0-11,.61-18.25,7.2a18.09,18.09,0,0,0-3.9,4.68V952.08c3.81-.53,12.43-2.16,17.32-6.65C1088,939.59,1088.47,925.62,1088.49,925Zm-17.65-21.49c4.33-3.94,10.28-5.38,13.49-5.88-.46,4.49-1.92,12-5.48,15.25-3.78,3.47-10.77,4.94-14.43,5.5C1064.91,914.72,1066.41,907.57,1070.84,903.55Zm-25,9.37c-3.55-3.25-5-10.75-5.47-15.25,3.2.5,9.15,1.94,13.49,5.88s6.36,14.87,6.36,14.87C1056.54,917.85,1049.6,916.38,1045.83,912.92Zm0,59.15c-3.55-3.25-5-10.75-5.47-15.25,3.2.51,9.15,2,13.49,5.89s5.91,11.15,6.41,14.87C1056.6,977,1049.62,975.54,1045.83,972.07ZM1060.24,948c-3.66-.58-10.63-2-14.41-5.53-3.55-3.24-5-10.75-5.47-15.25,3.2.53,9.15,2,13.49,5.89s5.73,10.53,6.38,14.31a.08.08,0,0,1,0,0v.36a1.1,1.1,0,0,0,0,.18Zm-14.41,53.64c-3.55-3.25-5-10.75-5.47-15.25,3.2.51,9.15,2,13.49,5.89s5.91,11.16,6.41,14.87C1056.59,1006.59,1049.61,1005.11,1045.83,1001.65Zm25-9.37c4.33-3.93,10.28-5.37,13.49-5.88-.46,4.49-1.92,12-5.48,15.25-3.78,3.46-10.77,5-14.43,5.51C1064.91,1003.45,1066.41,996.29,1070.84,992.28Zm0-29.57c4.33-3.94,10.28-5.38,13.49-5.89-.46,4.5-1.92,12-5.48,15.25-3.78,3.47-10.77,4.95-14.43,5.51C1064.91,973.88,1066.41,966.72,1070.84,962.71Zm-6.42-14.7c.49-3.72,2-10.86,6.42-14.89s10.28-5.36,13.49-5.89c-.46,4.5-1.92,12-5.48,15.25C1075.07,946,1068.08,947.43,1064.42,948Z"/><path class="cls-6" d="M865.45,402.1h-16v19.49a25.08,25.08,0,0,0-6.27,4.11A22.75,22.75,0,0,0,837.4,435a22.75,22.75,0,0,0-5.81-9.31,24.83,24.83,0,0,0-6-4V402.1h-16l27.84-32Z"/><path class="cls-2" d="M863.55,450.15a2,2,0,0,0-2.09-2.06c-.45,0-11,.6-18.25,7.19a19.63,19.63,0,0,0-3.93,5.07V447.62c3.8-.53,12.44-2.15,17.35-6.65,6.39-5.85,6.91-19.81,6.93-20.39a2,2,0,0,0-.59-1.49,2,2,0,0,0-1.5-.58,35.11,35.11,0,0,0-12,3.08,25.08,25.08,0,0,0-6.27,4.11A22.75,22.75,0,0,0,837.4,435a22.75,22.75,0,0,0-5.81-9.31,24.83,24.83,0,0,0-6-4,34.85,34.85,0,0,0-12.25-3.21,2,2,0,0,0-1.49.58,2,2,0,0,0-.6,1.49c0,.58.54,14.54,6.93,20.39,4.8,4.4,13.17,6.06,17.09,6.61V460a18.87,18.87,0,0,0-3.69-4.67c-7.26-6.59-17.8-7.18-18.25-7.19a2,2,0,0,0-2.09,2.06c0,.58.54,14.55,6.93,20.39,4.81,4.42,13.21,6.06,17.12,6.61v12.43a19.05,19.05,0,0,0-3.72-4.73c-7.26-6.59-17.8-7.16-18.25-7.2a2.07,2.07,0,0,0-1.49.58,2,2,0,0,0-.6,1.49c0,.6.54,14.55,6.93,20.41,4.82,4.41,13.25,6.07,17.15,6.6v12.48a19.19,19.19,0,0,0-3.75-4.78c-7.26-6.59-17.8-7.17-18.25-7.2a2,2,0,0,0-2.09,2.06c0,.61.54,14.55,6.93,20.42,4.83,4.42,13.3,6.07,17.18,6.61l0,29.32V572a2,2,0,0,0,4,0v-6.42l0-29.23c3.84-.55,12.39-2.18,17.26-6.63,6.39-5.87,6.91-19.81,6.93-20.42a2,2,0,0,0-2.09-2.06c-.45,0-11,.61-18.25,7.2a17.93,17.93,0,0,0-3.87,4.58V506.76c3.82-.53,12.41-2.16,17.29-6.63,6.39-5.86,6.91-19.81,6.93-20.41a2,2,0,0,0-.59-1.49,2.11,2.11,0,0,0-1.5-.58c-.45,0-11,.61-18.25,7.2a18.09,18.09,0,0,0-3.9,4.68V477.19c3.81-.53,12.43-2.16,17.32-6.65C863,464.7,863.53,450.73,863.55,450.15ZM845.9,428.66c4.33-3.94,10.28-5.38,13.49-5.88-.46,4.49-1.92,12-5.48,15.25-3.78,3.47-10.77,4.94-14.43,5.5C840,439.83,841.47,432.68,845.9,428.66Zm-25,9.37c-3.55-3.25-5-10.75-5.47-15.25,3.2.5,9.15,1.94,13.49,5.88s6.36,14.87,6.36,14.87C831.6,443,824.66,441.49,820.89,438Zm0,59.15c-3.55-3.25-5-10.75-5.47-15.25,3.2.51,9.15,2,13.49,5.89s5.91,11.15,6.41,14.87C831.66,502.13,824.68,500.65,820.89,497.18Zm14.41-24.06c-3.66-.58-10.63-2.05-14.41-5.53-3.55-3.24-5-10.75-5.47-15.25,3.2.53,9.15,2,13.49,5.89s5.73,10.53,6.38,14.31a.08.08,0,0,1,0,0v.36a1.1,1.1,0,0,0,0,.18Zm-14.41,53.64c-3.55-3.25-5-10.75-5.47-15.25,3.2.51,9.15,2,13.49,5.89s5.91,11.16,6.41,14.87C831.65,531.7,824.67,530.22,820.89,526.76Zm25-9.37c4.33-3.93,10.28-5.37,13.49-5.88-.46,4.49-1.92,12-5.48,15.25-3.78,3.46-10.77,5-14.43,5.51C840,528.56,841.47,521.4,845.9,517.39Zm0-29.57c4.33-3.94,10.28-5.38,13.49-5.89-.46,4.5-1.92,12-5.48,15.25-3.78,3.47-10.77,4.95-14.43,5.51C840,499,841.47,491.83,845.9,487.82Zm-6.42-14.7c.49-3.72,2-10.86,6.42-14.89s10.28-5.36,13.49-5.89c-.46,4.5-1.92,12-5.48,15.25C850.13,471.07,843.14,472.54,839.48,473.12Z"/><path class="cls-6" d="M1427.27,674.58h0l-.11.09h0c0-.07,0-.12.07-.19S1427.26,674.54,1427.27,674.58Z"/><path class="cls-6" d="M1455.28,640.58h-16v20.49c-.54.25-1.08.52-1.61.81l-.81.46c-.53.31-1.06.65-1.58,1-.26.18-.52.37-.77.57s-.45.34-.66.53-.56.46-.84.71a22.72,22.72,0,0,0-5.81,9.3c-.15-.41-.3-.83-.47-1.24s-.35-.83-.54-1.25-.39-.82-.6-1.23-.44-.81-.68-1.21-.49-.79-.76-1.18l-.41-.57c-.14-.19-.28-.38-.43-.56l-.41-.51c-.32-.36-.65-.72-1-1.06-.16-.17-.33-.33-.51-.49-.34-.31-.68-.6-1-.88l-.77-.59c-.2-.16-.41-.3-.62-.44l-.5-.34c-.25-.17-.51-.33-.76-.48-.51-.31-1-.59-1.54-.86l-.78-.38V640.58h-16l27.84-32Z"/><path class="cls-2" d="M1427.23,674.48c0,.07,0,.12-.07.19h0l.11-.09h0S1427.24,674.52,1427.23,674.48Z"/><path class="cls-2" d="M1415.42,661.19h0l.78.38Q1415.81,661.37,1415.42,661.19Zm1.55.8-.77-.41c.51.27,1,.55,1.54.86Zm20.73-.11c.53-.29,1.07-.56,1.61-.81h0C1438.77,661.31,1438.23,661.58,1437.7,661.88Z"/><path class="cls-2" d="M1436.77,715a25.33,25.33,0,0,0,9.68-5c6.39-5.85,6.91-19.81,6.93-20.4a2,2,0,0,0-.59-1.49,2.13,2.13,0,0,0-.65-.42,2.17,2.17,0,0,0-.85-.14c-.09,0-.53,0-1.23.1l-.79.1c-.58.08-1.27.19-2,.34-3.83.76-9.65,2.53-14.19,6.65l-.59.56a20.28,20.28,0,0,0-3.34,4.51V687.09c.48-.07,1-.15,1.64-.26l1-.17,1.57-.32,1.13-.26,1.16-.3,1.2-.34a33.47,33.47,0,0,0,5.45-2.14,20.27,20.27,0,0,0,2.78-1.67,15.58,15.58,0,0,0,1.47-1.19c6.39-5.86,6.91-19.81,6.93-20.4a2,2,0,0,0-.59-1.48,2,2,0,0,0-1.5-.58l-.53,0-.41,0-.8.09a37.16,37.16,0,0,0-5.93,1.28c-.68.2-1.39.44-2.12.72s-1.45.58-2.19.92h0c-.54.25-1.08.52-1.61.81l-.81.46c-.53.32-1.06.66-1.58,1-.26.18-.52.37-.77.57s-.45.34-.66.53-.56.46-.84.71a22.72,22.72,0,0,0-5.81,9.3c-.15-.41-.3-.83-.47-1.24s-.35-.83-.54-1.25-.39-.82-.6-1.23-.44-.81-.68-1.21-.49-.79-.76-1.18l-.41-.57c-.14-.19-.28-.38-.43-.56l-.41-.51c-.32-.36-.65-.72-1-1.06-.16-.17-.33-.33-.51-.49-.34-.31-.68-.6-1-.88l-.77-.59c-.2-.16-.41-.3-.62-.44l-.5-.34c-.25-.17-.51-.33-.76-.48-.51-.31-1-.59-1.54-.86l-.78-.38h0c-.75-.36-1.5-.68-2.24-1a33,33,0,0,0-3.19-1.06c-.68-.19-1.33-.35-1.94-.48a35.17,35.17,0,0,0-3.92-.64c-.23,0-.43,0-.58,0l-.38,0a2.1,2.1,0,0,0-.83.14,2.31,2.31,0,0,0-.35.18h0a2.55,2.55,0,0,0-.3.26,2,2,0,0,0-.36.46,2,2,0,0,0-.24,1c0,.59.54,14.54,6.93,20.4a16.67,16.67,0,0,0,1.44,1.17c.33.24.68.47,1,.7s.72.43,1.1.64l.56.3,1.16.56a44.88,44.88,0,0,0,11.79,3.24v12.36a19.32,19.32,0,0,0-3.14-4.14l-.55-.52c-4.54-4.12-10.36-5.89-14.19-6.65-.77-.15-1.46-.26-2-.34l-.79-.1c-.7-.08-1.14-.1-1.23-.1a2.17,2.17,0,0,0-.85.14,2,2,0,0,0-.64.42,2.35,2.35,0,0,0-.36.47,2,2,0,0,0-.24,1c0,.59.54,14.55,6.93,20.4a16.56,16.56,0,0,0,2,1.53c.52.35,1.07.68,1.63,1l.57.3,1.16.56.59.26a36.62,36.62,0,0,0,4.18,1.48l1.17.32a54,54,0,0,0,5.86,1.17V729a19.19,19.19,0,0,0-3.72-4.72,25,25,0,0,0-5.85-3.9,32.52,32.52,0,0,0-3.73-1.52l-1.42-.45a36.31,36.31,0,0,0-4.77-1.05l-.88-.12-.7-.08-.52-.05-.38,0h-.1l-.33,0a1.78,1.78,0,0,0-.33.09s0,0-.06,0a1.89,1.89,0,0,0-.35.17,2,2,0,0,0-.32.26,2.35,2.35,0,0,0-.36.47,2,2,0,0,0-.24,1c0,.57.51,13.68,6.35,19.83.18.2.38.39.58.58l.46.4.48.39c.5.38,1,.74,1.55,1.08.36.22.73.44,1.11.64s.75.4,1.14.59h0c.77.38,1.57.72,2.37,1A46.25,46.25,0,0,0,1424,746l1.21.18v12.47a19.25,19.25,0,0,0-3.19-4.24l-.56-.53a25.79,25.79,0,0,0-7.36-4.59,36.16,36.16,0,0,0-9.66-2.5l-1-.1h-.2a1.38,1.38,0,0,0-.45,0,.77.77,0,0,0-.26.07,1.71,1.71,0,0,0-.48.21,2.55,2.55,0,0,0-.3.26,2.35,2.35,0,0,0-.36.47h0a2.17,2.17,0,0,0-.15.35,1.8,1.8,0,0,0-.09.65c0,.58.51,13.69,6.35,19.84.18.2.38.39.58.58a20.29,20.29,0,0,0,5.34,3.38l1.2.51,1.2.46a49.38,49.38,0,0,0,9.44,2.26l0,29.51v6.16a2,2,0,1,0,4,0v-6.18l0-29.46c1.08-.15,2.53-.39,4.17-.76l1.12-.26,1.16-.3a31.82,31.82,0,0,0,8.29-3.43,17,17,0,0,0,2.52-1.88c.2-.19.4-.38.58-.58,5.84-6.15,6.33-19.26,6.35-19.84a2,2,0,0,0-.59-1.48,2.51,2.51,0,0,0-.31-.26,1.71,1.71,0,0,0-.48-.21.77.77,0,0,0-.26-.07,1.38,1.38,0,0,0-.45,0c-.09,0-.53,0-1.23.11a36.16,36.16,0,0,0-9.66,2.5,25.79,25.79,0,0,0-7.36,4.59c-.4.36-.77.71-1.13,1.07a16.94,16.94,0,0,0-1.93,2.24c-.22.32-.44.66-.64,1,0,.1-.12.18-.17.27V746.23c.48-.07,1-.15,1.64-.26l1.46-.27,1.07-.22a40.41,40.41,0,0,0,7.72-2.47,20.21,20.21,0,0,0,5.4-3.41c.2-.19.4-.38.58-.58,5.84-6.15,6.33-19.26,6.35-19.83a2,2,0,0,0-.59-1.49,2.6,2.6,0,0,0-.32-.26,2,2,0,0,0-.36-.17s0,0-.06,0a1.78,1.78,0,0,0-.33-.09,1.73,1.73,0,0,0-.32,0h-.18l-.83.07-.7.08-.88.12a36.31,36.31,0,0,0-4.77,1.05l-1.42.45a32.52,32.52,0,0,0-3.73,1.52,25,25,0,0,0-5.85,3.9l-.59.54-.55.55a15.62,15.62,0,0,0-2.76,3.58V716.66a51,51,0,0,0,6.45-1.31Zm-7.22-33.55c0-.25.09-.5.14-.77.09-.47.2-1,.32-1.48.18-.81.41-1.65.69-2.51.1-.34.22-.68.34-1a18.85,18.85,0,0,1,4.68-7.55c4.07-3.69,9.55-5.19,12.87-5.78l.63-.1c0,.28-.06.58-.1.88a44.46,44.46,0,0,1-.9,5h0c-.17.71-.36,1.43-.58,2.14-.16.53-.34,1.06-.53,1.59-.12.34-.25.67-.4,1h0c-.14.33-.28.65-.44,1h0a14.56,14.56,0,0,1-.74,1.35,11.45,11.45,0,0,1-1.46,1.91,3.43,3.43,0,0,1-.33.33,20,20,0,0,1-7.26,3.84,46.49,46.49,0,0,1-7.17,1.66C1429.37,682.54,1429.45,682,1429.55,681.46ZM1425.1,683h0a46.14,46.14,0,0,1-7.15-1.68c-.67-.22-1.34-.46-2-.72s-1.3-.55-1.91-.86h0a14.88,14.88,0,0,1-3.31-2.23,3.43,3.43,0,0,1-.33-.33c-.21-.22-.42-.45-.62-.7a10.66,10.66,0,0,1-.84-1.2h0c-.18-.28-.34-.57-.5-.88-1.92-3.69-2.83-8.75-3.18-12.13l.63.1c3.31.59,8.79,2.09,12.86,5.78.17.15.33.32.49.49,3.75,4,5.68,13.44,5.86,14.31V683h0Zm.05,59.16a44.77,44.77,0,0,1-8.17-2,26.21,26.21,0,0,1-2.92-1.26,15,15,0,0,1-3.34-2.24,3.43,3.43,0,0,1-.33-.33c-3.31-3.39-4.69-10.56-5.14-14.92a31.27,31.27,0,0,1,9.08,2.88c.31.15.62.32.92.5.56.32,1.12.68,1.66,1.06l.24.17a16.89,16.89,0,0,1,1.41,1.12l.18.16a8.41,8.41,0,0,1,.79.79c3.8,4.09,5.15,10.59,5.62,14.07Zm0-29.57h0c-.69-.11-1.49-.25-2.37-.43a45.55,45.55,0,0,1-4.79-1.25,26.64,26.64,0,0,1-3.92-1.6,15.08,15.08,0,0,1-3.33-2.25c-3.55-3.24-5-10.75-5.47-15.25l.63.11c.66.12,1.41.28,2.22.48.54.13,1.1.29,1.68.47s1.18.38,1.79.61,1.22.49,1.84.77,1.23.6,1.84,1,1.21.73,1.8,1.14a19.72,19.72,0,0,1,1.69,1.36A15.82,15.82,0,0,1,1422,702a21.24,21.24,0,0,1,.92,1.93,37.92,37.92,0,0,1,2.25,8.13h0a0,0,0,0,1,0,0v.36a1,1,0,0,0,0,.17Zm0,59.15a50.6,50.6,0,0,1-5.18-1.08c-.65-.18-1.32-.37-2-.59a25.78,25.78,0,0,1-3.92-1.6h0a14.71,14.71,0,0,1-3.33-2.24,3.43,3.43,0,0,1-.33-.33c-3.31-3.39-4.69-10.56-5.14-14.92,3.2.51,9.15,1.95,13.49,5.89a8.41,8.41,0,0,1,.79.79,19.5,19.5,0,0,1,3.88,6.75c.12.34.24.68.35,1h0c.11.34.21.68.3,1h0c.1.33.19.66.27,1q.24,1,.42,1.89c.06.3.11.58.16.86.1.56.18,1.08.24,1.54Zm2.12-97.15-.11.09h0c0-.07,0-.12.07-.19s0,.06,0,.1Zm2,97.14c.06-.46.14-1,.24-1.54,0-.28.1-.56.16-.86.09-.45.19-.92.3-1.4.07-.32.15-.65.25-1s.15-.57.24-.86l.09-.3c0-.12.07-.24.11-.36a19.56,19.56,0,0,1,5-8.57,19.16,19.16,0,0,1,2.59-2,29.35,29.35,0,0,1,10.91-3.92c0,.28-.06.57-.1.87a44.61,44.61,0,0,1-.9,5.06h0c-.17.71-.36,1.43-.58,2.14-.16.53-.34,1.06-.53,1.59-.12.34-.25.67-.4,1h0c-.14.33-.28.65-.44,1h0a14.56,14.56,0,0,1-.74,1.35,11.45,11.45,0,0,1-1.46,1.91,3.43,3.43,0,0,1-.33.33c-3.78,3.46-10.77,4.95-14.43,5.51Zm0-29.58a36.43,36.43,0,0,1,1.83-7.56c.2-.56.43-1.12.68-1.68a.77.77,0,0,0,.07-.16,19.53,19.53,0,0,1,2.31-3.82,9.66,9.66,0,0,1,.73-.85c.26-.28.52-.54.8-.79.12-.11.24-.2.36-.3a11.19,11.19,0,0,1,1-.81c.21-.16.42-.32.64-.46a16.56,16.56,0,0,1,1.47-.94c.3-.18.61-.35.92-.5a30.92,30.92,0,0,1,9.09-2.88c0,.28-.06.57-.1.88a44.46,44.46,0,0,1-.9,5.05h0c-.17.71-.36,1.43-.58,2.14-.16.54-.34,1.07-.53,1.59-.12.34-.25.67-.4,1h0c-.14.33-.28.65-.44,1h0a14.56,14.56,0,0,1-.74,1.35,11.05,11.05,0,0,1-1.46,1.91,3.43,3.43,0,0,1-.33.33,14.71,14.71,0,0,1-3.33,2.24,38.74,38.74,0,0,1-11.1,3.27Zm0-29.56h0c.06-.46.14-1,.24-1.54,0-.28.1-.56.16-.86h0c.06-.29.12-.6.19-.91a33.68,33.68,0,0,1,1.24-4.25c.2-.56.43-1.12.68-1.68a.77.77,0,0,0,.07-.16,20,20,0,0,1,1.65-2.92,14,14,0,0,1,2.18-2.55,19.47,19.47,0,0,1,1.7-1.36c.59-.41,1.19-.79,1.79-1.14s1.23-.67,1.85-1,1.22-.54,1.83-.77h0c.6-.23,1.2-.43,1.78-.61s1.15-.34,1.69-.47c.81-.2,1.56-.36,2.22-.48l.63-.11c0,.28-.06.57-.1.88a44.61,44.61,0,0,1-.9,5.06c-.17.72-.36,1.44-.58,2.15-.16.53-.34,1.06-.53,1.58-.12.35-.26.68-.4,1s-.28.66-.44,1c-.23.48-.48.93-.74,1.36a10.3,10.3,0,0,1-1.79,2.23,15.08,15.08,0,0,1-3.33,2.25,26.32,26.32,0,0,1-3.93,1.6,45.69,45.69,0,0,1-4.8,1.25C1430.8,712.34,1430,712.48,1429.31,712.59Z"/><path class="cls-6" d="M974.62,897.45h-9v9.91c-.31.25-.61.5-.9.77a22.61,22.61,0,0,0-5.81,9.33,22.61,22.61,0,0,0-5.81-9.33c-.29-.27-.59-.52-.9-.77v-9.91h-9l15.63-18Z"/><path class="cls-2" d="M983,930.51c-.45,0-11,.6-18.25,7.19a19.68,19.68,0,0,0-3.81,4.88V930c3.86-.53,12.37-2.17,17.22-6.62,6.39-5.86,6.91-19.81,6.93-20.4a2,2,0,0,0-.6-1.49,2,2,0,0,0-1.49-.58c-.43,0-10.15.55-17.35,6.43-.31.25-.61.5-.9.77a22.61,22.61,0,0,0-5.81,9.33,22.61,22.61,0,0,0-5.81-9.33c-.29-.27-.59-.52-.9-.77-7.2-5.88-16.92-6.4-17.35-6.43a2.08,2.08,0,0,0-1.5.58,2,2,0,0,0-.59,1.49c0,.59.54,14.54,6.93,20.4,4.85,4.45,13.36,6.09,17.22,6.62v12.56a19.68,19.68,0,0,0-3.81-4.88c-7.26-6.59-17.8-7.17-18.25-7.19a2.07,2.07,0,0,0-1.5.57,2,2,0,0,0-.59,1.49c0,.6.54,14.55,6.93,20.41,4.85,4.44,13.36,6.08,17.22,6.61v23a2,2,0,0,0,4,0v-23c3.86-.53,12.37-2.17,17.22-6.61,6.39-5.86,6.91-19.81,6.93-20.41a2,2,0,0,0-.6-1.49A2,2,0,0,0,983,930.51Zm-15.56-19.42c4.33-3.93,10.28-5.38,13.49-5.89-.47,4.5-1.92,12-5.48,15.25-3.78,3.47-10.76,4.95-14.43,5.51C961.53,922.25,963,915.09,967.45,911.09Zm-25,9.36c-3.55-3.25-5-10.75-5.47-15.25,3.2.51,9.15,2,13.48,5.89s5.92,11.16,6.42,14.87C953.2,925.4,946.22,923.92,942.44,920.45Zm0,29.58c-3.55-3.25-5-10.75-5.47-15.25,3.2.51,9.15,2,13.48,5.89s5.92,11.16,6.42,14.87C953.2,955,946.22,953.49,942.44,950Zm33,0c-3.78,3.46-10.76,5-14.43,5.51.5-3.71,2-10.87,6.42-14.87s10.28-5.38,13.49-5.89C980.47,939.27,979,946.77,975.46,950Z"/><path class="cls-6" d="M921.42,522.61h-9v9.91c-.31.25-.61.5-.89.77a22.61,22.61,0,0,0-5.81,9.33,22.61,22.61,0,0,0-5.81-9.33c-.3-.27-.6-.52-.9-.77v-9.91h-9l15.62-18Z"/><path class="cls-2" d="M929.81,555.67c-.45,0-11,.6-18.25,7.19a19.68,19.68,0,0,0-3.81,4.88V555.18c3.86-.53,12.37-2.17,17.21-6.62,6.4-5.86,6.92-19.81,6.93-20.4a1.94,1.94,0,0,0-.59-1.49,2,2,0,0,0-1.49-.58c-.43,0-10.16.55-17.36,6.43-.31.25-.61.5-.89.77a22.61,22.61,0,0,0-5.81,9.33,22.61,22.61,0,0,0-5.81-9.33c-.3-.27-.6-.52-.9-.77-7.21-5.88-16.92-6.4-17.35-6.43a2,2,0,0,0-2.1,2.07c0,.59.55,14.54,6.93,20.4,4.86,4.45,13.37,6.09,17.23,6.62v12.56a19.68,19.68,0,0,0-3.81-4.88c-7.26-6.59-17.8-7.17-18.25-7.19a2.06,2.06,0,0,0-1.5.57,2.09,2.09,0,0,0-.6,1.49c0,.6.55,14.55,6.93,20.41,4.86,4.44,13.37,6.08,17.23,6.61v23a2,2,0,0,0,4,0v-23c3.86-.53,12.37-2.17,17.21-6.61,6.4-5.86,6.92-19.81,6.93-20.41a2,2,0,0,0-.59-1.49A2,2,0,0,0,929.81,555.67Zm-15.56-19.42c4.33-3.93,10.27-5.38,13.49-5.89-.48,4.5-1.92,12-5.48,15.25-3.78,3.47-10.76,4.95-14.43,5.51C908.33,547.41,909.83,540.25,914.25,536.25Zm-25,9.36c-3.55-3.25-5-10.75-5.48-15.25,3.2.51,9.16,2,13.49,5.89s5.92,11.16,6.42,14.87C900,550.56,893,549.08,889.24,545.61Zm0,29.58c-3.55-3.25-5-10.75-5.48-15.25,3.2.51,9.16,1.95,13.49,5.89s5.92,11.16,6.42,14.87C900,580.14,893,578.65,889.24,575.19Zm33,0c-3.78,3.46-10.76,4.95-14.43,5.51.5-3.71,2-10.87,6.42-14.87s10.27-5.38,13.49-5.89C927.26,564.43,925.82,571.93,922.26,575.19Z"/><path class="cls-6" d="M1244.33,696.87h-9v9.91h0c-.31.25-.6.49-.89.76h0l-.34.32-.17.17a17.68,17.68,0,0,0-1.84,2.13l-.39.54c-.15.22-.3.45-.44.68s-.23.35-.33.53-.36.62-.52.93-.3.55-.43.82c-.32.64-.61,1.3-.87,2-.17.42-.32.83-.47,1.25-.15-.42-.3-.83-.47-1.25a25.21,25.21,0,0,0-1.14-2.49c-.22-.4-.44-.81-.68-1.21-.12-.2-.24-.4-.37-.6a18.42,18.42,0,0,0-1.55-2.11,7.32,7.32,0,0,0-.59-.66h0c-.32-.35-.66-.68-1-1s-.59-.52-.9-.77v-9.91h-9l15.63-18Z"/><path class="cls-2" d="M1232.23,729.2l1.64-.3,1.39-.3.26-.06.86-.21.3-.08c.91-.24,1.86-.52,2.81-.84l.62-.22,1.2-.45.61-.26a27.7,27.7,0,0,0,2.89-1.43h0a18.15,18.15,0,0,0,3.06-2.22c.2-.18.39-.37.58-.57s.37-.41.55-.62a16.22,16.22,0,0,0,1-1.32s0,0,0,0c.31-.47.6-1,.87-1.46v0a25.66,25.66,0,0,0,1.71-4,38.29,38.29,0,0,0,1.35-5.22c.12-.6.22-1.18.3-1.73,0-.15,0-.3.07-.44,0-.34.1-.67.14-1,0-.11,0-.22,0-.32.07-.54.12-1,.16-1.47.12-1.25.15-2.07.15-2.2v-.07a2.2,2.2,0,0,0,0-.36,1.82,1.82,0,0,0-.11-.38,0,0,0,0,0,0,0,1.88,1.88,0,0,0-.44-.64h0a2,2,0,0,0-1.49-.58,34.52,34.52,0,0,0-14.55,4.47h0c-.48.28-1,.58-1.41.91h0c-.47.32-.92.67-1.37,1h0c-.31.25-.6.49-.89.76h0l-.34.32-.17.17a17.68,17.68,0,0,0-1.84,2.13l-.39.54c-.15.22-.3.45-.44.68s-.23.35-.33.53-.36.62-.52.93-.3.55-.43.82c-.32.64-.61,1.3-.87,2-.17.42-.32.83-.47,1.25-.15-.42-.3-.83-.47-1.25s-.35-.83-.54-1.25-.39-.83-.6-1.24-.44-.81-.68-1.21c-.12-.2-.24-.4-.37-.6a18.42,18.42,0,0,0-1.55-2.11c-.19-.23-.39-.44-.59-.66h0c-.32-.35-.66-.68-1-1s-.59-.52-.9-.77c-7.2-5.88-16.92-6.4-17.35-6.43a2,2,0,0,0-1.18.33,0,0,0,0,0,0,0,1.72,1.72,0,0,0-.31.24h0a2,2,0,0,0-.26.32,1.51,1.51,0,0,0-.15.28.05.05,0,0,0,0,0,.36.36,0,0,0,0,.11,1.29,1.29,0,0,0-.08.26,1.41,1.41,0,0,0,0,.28,1.21,1.21,0,0,0,0,.19c0,.17,0,1.39.25,3.19,0,0,0,0,0,0,0,.4.1.82.16,1.26a0,0,0,0,1,0,0c.07.45.14.92.22,1.4,0,.26.09.52.13.78.84,4.59,2.58,10.44,6.17,13.73,3,2.78,7.49,4.46,11.35,5.47l1.14.28,1.61.35,1.47.27,1.64.25h0V742a21.54,21.54,0,0,0-1.23-1.92h0a17.88,17.88,0,0,0-2.57-2.93c-7.26-6.59-17.8-7.17-18.25-7.19a2.07,2.07,0,0,0-1.5.57,2.42,2.42,0,0,0-.25.31v0a1.82,1.82,0,0,0-.15.27l0,0a1.12,1.12,0,0,0-.05.13,2,2,0,0,0-.11.64V732c0,.17,0,1.39.25,3.2h0c0,.4.1.82.16,1.27h0c.07.45.14.92.22,1.41,0,.25.09.51.13.77a34,34,0,0,0,3.16,9.73h0c.28.51.57,1,.88,1.47h0c.32.46.65.91,1,1.33.18.21.36.42.55.62s.38.39.58.57c4.85,4.44,13.35,6.08,17.21,6.61h0v23a2,2,0,0,0,3.83.8,1.29,1.29,0,0,0,.12-.38,1.93,1.93,0,0,0,.05-.42V759c3.62-.5,11.31-2,16.26-5.8h0c.32-.25.64-.52.94-.79h0c2.45-2.25,4-5.69,5.06-9.11.12-.4.24-.8.34-1.2,0-.14.08-.29.11-.43.11-.42.21-.84.3-1.25s.16-.76.24-1.13c.13-.69.25-1.36.34-2a2.07,2.07,0,0,0,0-.22c.06-.41.11-.8.16-1.17,0-.06,0-.11,0-.16.07-.59.13-1.13.17-1.6.12-1.22.15-2,.15-2.15v-.07a2,2,0,0,0-.14-.72.05.05,0,0,0,0,0,2.68,2.68,0,0,0-.18-.33v0a1.79,1.79,0,0,0-.25-.31,2,2,0,0,0-1.49-.57c-.45,0-11,.6-18.25,7.19-.2.18-.4.37-.58.56a20.13,20.13,0,0,0-3.23,4.32V729.44C1231.12,729.38,1231.65,729.3,1232.23,729.2Zm-1.09-6.23c.77-3.87,2.43-9.2,6-12.44v0c4.33-3.93,10.28-5.38,13.49-5.89-.05.5-.12,1-.2,1.6a39.23,39.23,0,0,1-2,8.2,14.14,14.14,0,0,1-3.32,5.45c-3.78,3.47-10.76,5-14.43,5.51C1230.83,724.68,1231,723.87,1231.14,723Zm-4.57,2.41c-3.67-.56-10.64-2-14.42-5.51-3.55-3.25-5-10.74-5.47-15.24h0c.6.1,1.29.22,2,.4h0a29.29,29.29,0,0,1,3.34.94,23,23,0,0,1,8.08,4.55c4.41,4,5.92,11.16,6.42,14.87Zm0,29.58c-3.67-.56-10.64-2.05-14.42-5.51a10.26,10.26,0,0,1-1-1h0a14.09,14.09,0,0,1-.84-1.2h0c-.17-.28-.34-.58-.5-.88-.32-.62-.61-1.28-.88-2a40.82,40.82,0,0,1-2.3-10.17h0c.6.1,1.29.22,2,.4h0c.51.11,1,.24,1.6.4s1.14.33,1.74.54a24.58,24.58,0,0,1,3.67,1.54,21.44,21.44,0,0,1,2.72,1.65,18,18,0,0,1,1.69,1.36h0a7.37,7.37,0,0,1,.79.79,13.1,13.1,0,0,1,1.4,1.75,23.62,23.62,0,0,1,3,6.54,32.8,32.8,0,0,1,.92,3.83c.14.72.24,1.37.32,2Zm5-4.38c.16-.62.34-1.27.55-1.92.11-.34.22-.68.34-1a18.76,18.76,0,0,1,4.69-7.55,18.47,18.47,0,0,1,2.58-2,22.72,22.72,0,0,1,3.66-1.89h0c.61-.26,1.22-.49,1.81-.68a32.43,32.43,0,0,1,5.43-1.35c-.06.52-.12,1.08-.21,1.67-.15,1.12-.36,2.34-.64,3.6-.11.49-.23,1-.36,1.48,0,.19-.1.38-.16.58-.16.61-.35,1.22-.56,1.83-.12.34-.25.69-.38,1-.2.5-.41,1-.64,1.47h0c-.24.47-.48.92-.74,1.35,0,0,0,0,0,0a10.66,10.66,0,0,1-.84,1.2c-.2.25-.41.48-.62.7l-.33.32c-3.78,3.46-10.76,4.95-14.43,5.51A40.37,40.37,0,0,1,1231.58,750.58Z"/><path class="cls-6" d="M879.81,820.82h-9v9.91c-.31.25-.61.5-.9.77a22.75,22.75,0,0,0-5.81,9.31,22.75,22.75,0,0,0-5.81-9.31c-.29-.26-.59-.52-.89-.76v-9.92h-9l15.63-18Z"/><path class="cls-2" d="M888.2,853.88c-.45,0-11,.6-18.25,7.2a19.45,19.45,0,0,0-3.81,4.88V853.39c3.86-.53,12.37-2.17,17.22-6.62,6.39-5.85,6.91-19.81,6.93-20.4a2,2,0,0,0-2.09-2.06c-.43,0-10.15.55-17.35,6.42-.31.25-.61.5-.9.77a22.75,22.75,0,0,0-5.81,9.31,22.75,22.75,0,0,0-5.81-9.31c-.29-.26-.59-.52-.89-.76-7.2-5.88-16.93-6.41-17.36-6.43a2,2,0,0,0-2.09,2.06c0,.59.55,14.55,6.94,20.4,4.84,4.45,13.34,6.09,17.21,6.62V866a19.45,19.45,0,0,0-3.81-4.88c-7.26-6.6-17.8-7.17-18.25-7.2a2,2,0,0,0-1.49.58A2,2,0,0,0,838,856c0,.59.55,14.54,6.94,20.4,4.84,4.45,13.34,6.09,17.21,6.62v22.95a2,2,0,0,0,4,0V883c3.86-.53,12.37-2.17,17.22-6.62,6.39-5.86,6.91-19.81,6.93-20.4a2,2,0,0,0-.59-1.49A2.07,2.07,0,0,0,888.2,853.88Zm-15.56-19.42c4.33-3.93,10.28-5.37,13.49-5.89-.46,4.5-1.92,12-5.48,15.25-3.78,3.47-10.76,4.95-14.43,5.51C866.71,845.63,868.21,838.48,872.64,834.46Zm-25,9.36c-3.55-3.24-5-10.75-5.47-15.25,3.2.52,9.15,2,13.49,5.89s5.91,11.17,6.41,14.88C858.4,848.78,851.42,847.3,847.63,843.82Zm0,29.58c-3.55-3.25-5-10.75-5.47-15.25,3.2.51,9.15,2,13.49,5.89s5.91,11.16,6.41,14.87C858.4,878.35,851.42,876.88,847.63,873.4Zm33,0c-3.78,3.47-10.76,5-14.43,5.51.49-3.7,2-10.86,6.42-14.87s10.28-5.38,13.49-5.89C885.67,862.65,884.21,870.14,880.65,873.4Z"/><path class="cls-6" d="M675.83,676.27h-9v9.91c-.31.25-.61.5-.9.77a22.75,22.75,0,0,0-5.81,9.31,22.75,22.75,0,0,0-5.81-9.31c-.29-.26-.59-.52-.89-.76v-9.92h-9l15.63-18Z"/><path class="cls-2" d="M684.22,709.33c-.45,0-11,.6-18.25,7.2a19.45,19.45,0,0,0-3.81,4.88V708.84c3.86-.53,12.37-2.17,17.22-6.62,6.39-5.85,6.91-19.81,6.93-20.4a2,2,0,0,0-2.09-2.06c-.43,0-10.15.55-17.35,6.42-.31.25-.61.5-.9.77a22.75,22.75,0,0,0-5.81,9.31,22.75,22.75,0,0,0-5.81-9.31c-.29-.26-.59-.52-.89-.76-7.2-5.88-16.93-6.41-17.36-6.43a2,2,0,0,0-2.09,2.06c0,.59.55,14.55,6.94,20.4,4.84,4.45,13.34,6.09,17.21,6.62v12.57a19.45,19.45,0,0,0-3.81-4.88c-7.26-6.6-17.8-7.17-18.25-7.2a2,2,0,0,0-1.49.58,2,2,0,0,0-.6,1.49c0,.59.55,14.54,6.94,20.4,4.84,4.45,13.34,6.09,17.21,6.62v23a2,2,0,0,0,4,0v-23c3.86-.53,12.37-2.17,17.22-6.62,6.39-5.86,6.91-19.81,6.93-20.4a2,2,0,0,0-.59-1.49A2.07,2.07,0,0,0,684.22,709.33Zm-15.56-19.42c4.33-3.93,10.28-5.37,13.49-5.89-.46,4.5-1.92,12-5.48,15.25-3.78,3.47-10.76,5-14.43,5.51C662.73,701.08,664.23,693.93,668.66,689.91Zm-25,9.36c-3.55-3.24-5-10.75-5.47-15.25,3.2.52,9.15,2,13.49,5.89s5.91,11.17,6.41,14.88C654.42,704.23,647.44,702.75,643.65,699.27Zm0,29.58c-3.55-3.25-5-10.75-5.47-15.25,3.2.51,9.15,2,13.49,5.89s5.91,11.16,6.41,14.87C654.42,733.8,647.44,732.33,643.65,728.85Zm33,0c-3.78,3.47-10.76,4.95-14.43,5.51.49-3.7,2-10.86,6.42-14.87s10.28-5.38,13.49-5.89C681.69,718.1,680.23,725.59,676.67,728.85Z"/><path class="cls-6" d="M366.4,721.48h-9v9.91c-.31.25-.61.5-.9.77a22.75,22.75,0,0,0-5.81,9.31,22.75,22.75,0,0,0-5.81-9.31c-.29-.26-.59-.52-.89-.76v-9.92h-9l15.63-18Z"/><path class="cls-2" d="M374.79,754.54c-.45,0-11,.6-18.25,7.2a19.45,19.45,0,0,0-3.81,4.88V754.05c3.86-.53,12.37-2.17,17.22-6.62,6.39-5.85,6.91-19.81,6.93-20.4a2,2,0,0,0-2.09-2.06c-.43,0-10.15.55-17.35,6.42-.31.25-.61.5-.9.77a22.75,22.75,0,0,0-5.81,9.31,22.75,22.75,0,0,0-5.81-9.31c-.29-.26-.59-.52-.89-.76-7.2-5.88-16.93-6.41-17.36-6.43a2,2,0,0,0-2.09,2.06c0,.59.55,14.55,6.94,20.4,4.84,4.45,13.34,6.09,17.21,6.62v12.57a19.45,19.45,0,0,0-3.81-4.88c-7.26-6.6-17.8-7.17-18.25-7.2a2,2,0,0,0-1.49.58,2,2,0,0,0-.6,1.49c0,.59.55,14.54,6.94,20.4,4.84,4.45,13.34,6.09,17.21,6.62v23a2,2,0,0,0,4,0v-23c3.86-.53,12.37-2.17,17.22-6.62,6.39-5.86,6.91-19.81,6.93-20.4a2,2,0,0,0-.59-1.49A2.07,2.07,0,0,0,374.79,754.54Zm-15.56-19.42c4.33-3.93,10.28-5.37,13.49-5.89-.46,4.5-1.92,12-5.48,15.25-3.78,3.47-10.76,4.95-14.43,5.51C353.3,746.29,354.8,739.14,359.23,735.12Zm-25,9.36c-3.55-3.24-5-10.75-5.47-15.25,3.2.52,9.15,2,13.49,5.89s5.91,11.17,6.41,14.88C345,749.44,338,748,334.22,744.48Zm0,29.58c-3.55-3.25-5-10.75-5.47-15.25,3.2.51,9.15,2,13.49,5.89s5.91,11.16,6.41,14.87C345,779,338,777.54,334.22,774.06Zm33,0c-3.78,3.47-10.76,5-14.43,5.51.49-3.7,2-10.86,6.42-14.87s10.28-5.38,13.49-5.89C372.26,763.31,370.8,770.8,367.24,774.06Z"/><path class="cls-6" d="M804.94,866.3H794.5v10.89a21.85,21.85,0,0,0-2.37,1.87,19.45,19.45,0,0,0-3.81,4.88,28,28,0,0,0-2,4.42,28,28,0,0,0-2-4.42,19.45,19.45,0,0,0-3.81-4.88,18.44,18.44,0,0,0-1.62-1.33V866.3H768.45l18.2-20.92Z"/><path class="cls-2" d="M805.54,923.91c6.39-5.86,6.91-19.81,6.93-20.4a2,2,0,0,0-.59-1.49,2,2,0,0,0-1.5-.58c-.45,0-11,.6-18.25,7.19a19.45,19.45,0,0,0-3.81,4.88V901c3.86-.53,12.37-2.17,17.22-6.62,6.39-5.86,6.91-19.81,6.93-20.4a2,2,0,0,0-.59-1.49,2,2,0,0,0-1.5-.57c-.4,0-8.9.48-15.88,5.32a21.85,21.85,0,0,0-2.37,1.87,19.45,19.45,0,0,0-3.81,4.88,28,28,0,0,0-2,4.42,28,28,0,0,0-2-4.42,19.45,19.45,0,0,0-3.81-4.88,18.44,18.44,0,0,0-1.62-1.33c-7.11-5.35-16.21-5.84-16.63-5.86a2,2,0,0,0-1.5.57,2,2,0,0,0-.59,1.49c0,.59.54,14.54,6.93,20.4,4.85,4.45,13.36,6.09,17.22,6.62v12.56a19.45,19.45,0,0,0-3.81-4.88c-7.26-6.59-17.8-7.17-18.25-7.19a2.06,2.06,0,0,0-1.5.58,2,2,0,0,0-.59,1.49c0,.59.54,14.54,6.93,20.4,4.85,4.44,13.36,6.08,17.22,6.62v12.56a19.45,19.45,0,0,0-3.81-4.88c-7.26-6.59-17.8-7.17-18.25-7.19a2,2,0,0,0-1.5.57,2,2,0,0,0-.59,1.49c0,.59.54,14.55,6.93,20.4,4.85,4.45,13.36,6.09,17.22,6.62v12.78a2,2,0,0,0,4,0V960.1c3.86-.53,12.37-2.17,17.22-6.62,6.39-5.85,6.91-19.81,6.93-20.4a2,2,0,0,0-.59-1.49,2,2,0,0,0-1.5-.57c-.45,0-11,.6-18.25,7.19a19.45,19.45,0,0,0-3.81,4.88V930.53C792.18,930,800.69,928.35,805.54,923.91ZM794.81,911.6c4.34-3.94,10.29-5.38,13.5-5.89-.46,4.49-1.92,12-5.48,15.25-3.78,3.47-10.76,4.95-14.43,5.51C788.9,922.76,790.41,915.6,794.81,911.6Zm-4-23.77v0a17.19,17.19,0,0,1,3.4-5.21l0,0a6.78,6.78,0,0,1,.53-.54c4.34-3.93,10.29-5.38,13.5-5.89-.46,4.5-1.92,12-5.48,15.25-3.78,3.47-10.76,5-14.43,5.51A34.23,34.23,0,0,1,790.84,887.83Zm-21,3.55c-3.55-3.25-5-10.75-5.47-15.25,3.2.51,9.15,2,13.48,5.89s5.92,11.16,6.42,14.87C780.57,896.34,773.6,894.86,769.81,891.38Zm0,29.58c-3.55-3.25-5-10.75-5.47-15.25,3.2.51,9.15,1.95,13.48,5.89s5.92,11.16,6.42,14.87C780.57,925.91,773.6,924.44,769.81,921Zm0,29.57c-3.55-3.24-5-10.75-5.47-15.25,3.2.52,9.15,2,13.48,5.89s5.92,11.17,6.42,14.88C780.57,955.49,773.6,954,769.81,950.53Zm25-9.36c4.34-3.93,10.29-5.37,13.5-5.89-.46,4.5-1.92,12-5.48,15.25-3.78,3.47-10.76,5-14.43,5.51C788.9,952.33,790.41,945.17,794.81,941.17Z"/><path class="cls-6" d="M567.44,624.16H557v10.89a21.85,21.85,0,0,0-2.37,1.87,19.45,19.45,0,0,0-3.81,4.88,28,28,0,0,0-2,4.42,28,28,0,0,0-2-4.42,19.45,19.45,0,0,0-3.81-4.88,18.44,18.44,0,0,0-1.62-1.33V624.16H531l18.2-20.92Z"/><path class="cls-2" d="M568,681.77c6.39-5.86,6.91-19.81,6.93-20.4a2,2,0,0,0-.59-1.49,2,2,0,0,0-1.5-.58c-.45,0-11,.6-18.25,7.19a19.45,19.45,0,0,0-3.81,4.88V658.81c3.86-.53,12.37-2.17,17.22-6.62,6.39-5.86,6.91-19.81,6.93-20.4a2,2,0,0,0-.59-1.49,2,2,0,0,0-1.5-.57c-.4,0-8.9.48-15.88,5.32a21.85,21.85,0,0,0-2.37,1.87,19.45,19.45,0,0,0-3.81,4.88,28,28,0,0,0-2,4.42,28,28,0,0,0-2-4.42,19.45,19.45,0,0,0-3.81-4.88,18.44,18.44,0,0,0-1.62-1.33c-7.11-5.35-16.21-5.84-16.63-5.86a2,2,0,0,0-1.5.57,2,2,0,0,0-.59,1.49c0,.59.54,14.54,6.93,20.4,4.85,4.45,13.36,6.09,17.22,6.62v12.56a19.45,19.45,0,0,0-3.81-4.88c-7.26-6.59-17.8-7.17-18.25-7.19a2.06,2.06,0,0,0-1.5.58,2,2,0,0,0-.59,1.49c0,.59.54,14.54,6.93,20.4,4.85,4.44,13.36,6.08,17.22,6.62V701a19.45,19.45,0,0,0-3.81-4.88c-7.26-6.59-17.8-7.17-18.25-7.19a2,2,0,0,0-1.5.57,2,2,0,0,0-.59,1.49c0,.59.54,14.55,6.93,20.4,4.85,4.45,13.36,6.09,17.22,6.62v12.78a2,2,0,0,0,4,0V718c3.86-.53,12.37-2.17,17.22-6.62,6.39-5.85,6.91-19.81,6.93-20.4a2,2,0,0,0-.59-1.49,2,2,0,0,0-1.5-.57c-.45,0-11,.6-18.25,7.19a19.45,19.45,0,0,0-3.81,4.88V688.39C554.68,687.85,563.19,686.21,568,681.77Zm-10.73-12.31c4.34-3.94,10.29-5.38,13.5-5.89-.46,4.49-1.92,12-5.48,15.25-3.78,3.47-10.76,4.95-14.43,5.51C551.4,680.62,552.91,673.46,557.31,669.46Zm-4-23.77s0,0,0,0a17.19,17.19,0,0,1,3.4-5.21l0,0a6.78,6.78,0,0,1,.53-.54c4.34-3.93,10.29-5.38,13.5-5.89-.46,4.5-1.92,12-5.48,15.25-3.78,3.47-10.76,5-14.43,5.51A34.23,34.23,0,0,1,553.34,645.69Zm-21,3.55c-3.55-3.25-5-10.75-5.47-15.25,3.2.51,9.15,2,13.48,5.89s5.92,11.16,6.42,14.87C543.07,654.2,536.1,652.72,532.31,649.24Zm0,29.58c-3.55-3.25-5-10.75-5.47-15.25,3.2.51,9.15,1.95,13.48,5.89s5.92,11.16,6.42,14.87C543.07,683.77,536.1,682.3,532.31,678.82Zm0,29.57c-3.55-3.24-5-10.75-5.47-15.25,3.2.52,9.15,2,13.48,5.89s5.92,11.17,6.42,14.88C543.07,713.35,536.1,711.87,532.31,708.39Zm25-9.36c4.34-3.93,10.29-5.37,13.5-5.89-.46,4.5-1.92,12-5.48,15.25-3.78,3.47-10.76,5-14.43,5.51C551.4,710.19,552.91,703,557.31,699Z"/><path class="cls-6" d="M1373,617h-10.44v10.89a21.85,21.85,0,0,0-2.37,1.87,19.45,19.45,0,0,0-3.81,4.88,28,28,0,0,0-2,4.42,28,28,0,0,0-2-4.42,19.45,19.45,0,0,0-3.81-4.88,18.44,18.44,0,0,0-1.62-1.33V617h-10.44l18.2-20.92Z"/><path class="cls-2" d="M1373.58,674.58c6.39-5.86,6.91-19.81,6.93-20.4a2,2,0,0,0-.59-1.49h0a1.88,1.88,0,0,0-1-.54,2.28,2.28,0,0,0-.45,0h-.2l-.7.06-1.12.14c-.58.08-1.27.18-2,.34-3.83.75-9.65,2.52-14.19,6.64-.2.18-.39.36-.57.55a19.59,19.59,0,0,0-3.24,4.33V651.62c3.86-.53,12.37-2.17,17.22-6.62,6.39-5.86,6.91-19.81,6.93-20.4a2,2,0,0,0-.59-1.49h0a1.87,1.87,0,0,0-.64-.42,1.66,1.66,0,0,0-.38-.11,1.83,1.83,0,0,0-.47,0c-.4,0-8.9.48-15.88,5.32a21.85,21.85,0,0,0-2.37,1.87,19.45,19.45,0,0,0-3.81,4.88,28,28,0,0,0-2,4.42,28,28,0,0,0-2-4.42,19.45,19.45,0,0,0-3.81-4.88,18.44,18.44,0,0,0-1.62-1.33q-1-.75-2-1.38c-.46-.28-.93-.55-1.4-.79a34.15,34.15,0,0,0-10.11-3.32,28.85,28.85,0,0,0-3.08-.37,1.83,1.83,0,0,0-.47,0,1.66,1.66,0,0,0-.38.11,1.82,1.82,0,0,0-.65.42,2,2,0,0,0-.59,1.49c0,.59.54,14.54,6.93,20.4,4.85,4.45,13.36,6.09,17.22,6.62v12.56a19.59,19.59,0,0,0-3.24-4.33c-.18-.19-.37-.37-.57-.55-4.54-4.12-10.36-5.89-14.19-6.64-.77-.16-1.46-.26-2-.34l-1.12-.14-.7-.06h-.2a1.88,1.88,0,0,0-.53.06,2.16,2.16,0,0,0-.65.26,2,2,0,0,0-.91,1.75c0,.59.54,14.54,6.93,20.4,4.85,4.44,13.36,6.08,17.22,6.62v12.56a19.45,19.45,0,0,0-3.81-4.88c-7.26-6.59-17.8-7.17-18.25-7.19a2,2,0,0,0-1.5.57,2,2,0,0,0-.59,1.49c0,.57.51,13.69,6.35,19.83.19.2.38.39.58.57a17,17,0,0,0,2.51,1.89c4.89,3.05,11.45,4.28,14.71,4.73v12.78a2,2,0,0,0,4,0V710.77c3.26-.45,9.82-1.68,14.71-4.73a17,17,0,0,0,2.51-1.89c.2-.18.39-.37.58-.57,5.84-6.14,6.33-19.26,6.35-19.83a2,2,0,0,0-.59-1.49h0a2,2,0,0,0-1.49-.57c-.45,0-11,.6-18.25,7.19a19.45,19.45,0,0,0-3.81,4.88V681.2C1360.22,680.66,1368.73,679,1373.58,674.58Zm-10.73-12.31c4.34-3.94,10.28-5.38,13.49-5.89h0a46.87,46.87,0,0,1-1,5.94c-.17.72-.36,1.44-.58,2.15-.87,2.84-2.12,5.53-3.9,7.16-3.78,3.47-10.76,5-14.43,5.51C1356.94,673.43,1358.45,666.27,1362.85,662.27Zm-6.11-16.61c.19-1,.45-2.21.8-3.43.12-.41.25-.83.39-1.25.24-.73.51-1.47.83-2.2l.12-.28v0a17.19,17.19,0,0,1,3.4-5.21h0l0,0a3.45,3.45,0,0,1,.26-.28l.27-.26a19.84,19.84,0,0,1,3.49-2.51,24.2,24.2,0,0,1,2.76-1.35q.81-.35,1.59-.6l.45-.16a29.18,29.18,0,0,1,3.14-.87c.77-.17,1.46-.3,2.06-.4h0a46.28,46.28,0,0,1-1,5.94c-.17.72-.36,1.44-.58,2.15-.87,2.84-2.12,5.53-3.9,7.16-3.78,3.47-10.76,5-14.43,5.51C1356.52,647,1356.61,646.36,1356.74,645.66Zm-6,1.65c-.55-.1-1.14-.22-1.75-.35-3.69-.82-8.32-2.3-11.16-4.91-3.55-3.25-5-10.75-5.47-15.25.6.1,1.3.23,2.06.4a30.13,30.13,0,0,1,3.36.94c.59.2,1.2.43,1.81.69a25.17,25.17,0,0,1,2.77,1.35,19.41,19.41,0,0,1,3.48,2.51,19.78,19.78,0,0,1,5.08,8.73c.07.24.15.48.21.72a37.72,37.72,0,0,1,1.13,5.42Zm-12.91,24.32c-3.55-3.25-5-10.75-5.47-15.25q.6.09,1.32.24t1.38.3l.32.08c.75.2,1.55.43,2.38.71a28.78,28.78,0,0,1,2.76,1.1,22.19,22.19,0,0,1,2.73,1.5,18.56,18.56,0,0,1,2.59,2c4.41,4,5.92,11.16,6.42,14.87C1348.61,676.58,1341.64,675.11,1337.85,671.63Zm3.34,31.82a14.81,14.81,0,0,1-3.34-2.25l-.33-.32c-3.31-3.39-4.69-10.57-5.14-14.93.4.07.84.14,1.32.24a34.11,34.11,0,0,1,4.08,1.09h0c.59.2,1.19.43,1.8.68h0a25.28,25.28,0,0,1,2.77,1.36,17.22,17.22,0,0,1,8.51,11.08c.11.34.21.68.3,1h0c.1.34.19.66.27,1,.16.65.3,1.29.42,1.88.06.3.11.59.16.87.1.56.18,1.08.24,1.54A38.6,38.6,0,0,1,1341.19,703.45Zm15.3,2.9c0-.24.07-.5.12-.77s.09-.54.14-.83l.18-.9c.07-.3.14-.62.21-.94s.16-.65.25-1,.14-.54.23-.81c1-3.27,2.56-6.86,5.23-9.28a23,23,0,0,1,8.07-4.54c.3-.11.6-.2.89-.29q1-.3,1.83-.51c1-.25,1.94-.43,2.71-.55a46.45,46.45,0,0,1-1,5.75c0,.16-.07.32-.11.47-.13.53-.27,1.05-.42,1.57a17.37,17.37,0,0,1-3.66,7.14l-.33.32a15.31,15.31,0,0,1-3.33,2.25,28.63,28.63,0,0,1-3.93,1.6c-.67.22-1.33.41-2,.59a49.7,49.7,0,0,1-5.18,1.07C1356.46,706.59,1356.47,706.48,1356.49,706.35Z"/><path class="cls-6" d="M1151.23,465.06H1140.8V476a21,21,0,0,0-2.38,1.87,19.68,19.68,0,0,0-3.81,4.88,29.94,29.94,0,0,0-2,4.42,27.12,27.12,0,0,0-2-4.42,19.64,19.64,0,0,0-3.8-4.88,17.2,17.2,0,0,0-1.63-1.33V465.06h-10.43l18.19-20.92Z"/><path class="cls-2" d="M1151.84,522.67c6.38-5.86,6.91-19.81,6.93-20.4a2.1,2.1,0,0,0-.24-1,2,2,0,0,0-.36-.47h0a1.82,1.82,0,0,0-1-.54,2.38,2.38,0,0,0-.46,0h-.2l-.69.06-1.12.14c-.58.08-1.27.18-2.05.34-3.82.75-9.65,2.52-14.19,6.64-.2.18-.38.36-.57.55a19.9,19.9,0,0,0-3.24,4.33V499.71c3.86-.53,12.37-2.17,17.23-6.62,6.38-5.86,6.91-19.81,6.93-20.4a2.1,2.1,0,0,0-.24-1,2,2,0,0,0-.36-.47h0a1.83,1.83,0,0,0-.63-.42,1.66,1.66,0,0,0-.38-.11,1.87,1.87,0,0,0-.48,0c-.39,0-8.89.48-15.87,5.32a21,21,0,0,0-2.38,1.87,19.68,19.68,0,0,0-3.81,4.88,29.94,29.94,0,0,0-2,4.42,27.12,27.12,0,0,0-2-4.42,19.64,19.64,0,0,0-3.8-4.88,17.2,17.2,0,0,0-1.63-1.33,24.21,24.21,0,0,0-2-1.38c-.47-.28-.94-.55-1.4-.79a34.24,34.24,0,0,0-10.11-3.32,29.47,29.47,0,0,0-3.08-.37,1.79,1.79,0,0,0-.47,0,1.74,1.74,0,0,0-.39.11,1.78,1.78,0,0,0-.64.42,2,2,0,0,0-.6,1.49c0,.59.55,14.54,6.94,20.4,4.85,4.45,13.36,6.09,17.21,6.62v12.56a19.54,19.54,0,0,0-3.23-4.33c-.19-.19-.37-.37-.57-.55-4.54-4.12-10.37-5.89-14.2-6.64-.76-.16-1.45-.26-2-.34l-1.13-.14-.69-.06h-.2a1.84,1.84,0,0,0-.53.06,2.16,2.16,0,0,0-.65.26,2,2,0,0,0-.32.26,2,2,0,0,0-.6,1.49c0,.59.55,14.54,6.94,20.4,4.85,4.44,13.36,6.08,17.21,6.62v12.56a19.64,19.64,0,0,0-3.8-4.88c-7.26-6.59-17.8-7.17-18.25-7.19a2,2,0,0,0-1.5.57,2,2,0,0,0-.6,1.49c0,.57.51,13.69,6.36,19.83a7.8,7.8,0,0,0,.58.57,17,17,0,0,0,2.51,1.89c4.89,3,11.44,4.28,14.7,4.73v12.78a2,2,0,1,0,4,0V558.86c3.27-.45,9.82-1.68,14.72-4.73a17.53,17.53,0,0,0,2.51-1.89c.2-.18.38-.37.57-.57,5.85-6.14,6.34-19.26,6.36-19.83a2.1,2.1,0,0,0-.24-1,2,2,0,0,0-.36-.47h0a2,2,0,0,0-1.49-.57c-.45,0-11,.6-18.25,7.19a19.68,19.68,0,0,0-3.81,4.88V529.29C1138.47,528.75,1147,527.11,1151.84,522.67Zm-10.74-12.31c4.34-3.94,10.29-5.38,13.5-5.89a46.87,46.87,0,0,1-1,5.94c-.17.72-.35,1.44-.57,2.15-.87,2.84-2.12,5.53-3.9,7.16-3.78,3.47-10.77,4.95-14.44,5.51C1135.19,521.52,1136.7,514.36,1141.1,510.36Zm-6.1-16.61a30.72,30.72,0,0,1,.8-3.43c.11-.41.25-.83.38-1.25a22,22,0,0,1,.84-2.2l.12-.28v0a17,17,0,0,1,3.4-5.21h0l0,0a3.45,3.45,0,0,1,.26-.28c.08-.09.18-.17.26-.26a19.91,19.91,0,0,1,3.5-2.51,24.07,24.07,0,0,1,2.75-1.35c.55-.23,1.07-.43,1.59-.6l.46-.16a29.18,29.18,0,0,1,3.14-.87c.77-.17,1.46-.3,2.06-.4a46.28,46.28,0,0,1-1,5.94c-.17.72-.35,1.44-.57,2.15-.87,2.84-2.12,5.53-3.9,7.16-3.78,3.47-10.77,4.95-14.44,5.51C1134.78,495.09,1134.86,494.45,1135,493.75Zm-6,1.65c-.56-.1-1.14-.22-1.75-.35-3.69-.82-8.33-2.3-11.17-4.91-3.54-3.25-5-10.75-5.46-15.25.59.1,1.29.23,2,.4a30.87,30.87,0,0,1,3.37.94c.59.2,1.2.43,1.8.69a25.3,25.3,0,0,1,2.78,1.35,19.34,19.34,0,0,1,3.47,2.51,19.68,19.68,0,0,1,5.08,8.73c.08.24.16.48.22.72a37.72,37.72,0,0,1,1.13,5.42Zm-12.92,24.32c-3.54-3.25-5-10.75-5.46-15.25.4.06.83.14,1.31.24s.9.18,1.39.3l.32.08c.75.2,1.54.43,2.38.71s1.81.67,2.76,1.1a23,23,0,0,1,2.73,1.5,18.47,18.47,0,0,1,2.58,2c4.42,4,5.93,11.16,6.43,14.87C1126.86,524.67,1119.9,523.2,1116.1,519.72Zm3.34,31.82a15,15,0,0,1-3.34-2.25l-.32-.32c-3.32-3.39-4.69-10.57-5.14-14.93.4.07.83.14,1.31.24a33.73,33.73,0,0,1,4.09,1.09h0c.59.2,1.19.43,1.79.68h0a25.41,25.41,0,0,1,2.78,1.36,19.28,19.28,0,0,1,3.47,2.5,19.58,19.58,0,0,1,5,8.58c.11.34.2.68.29,1h0a9.77,9.77,0,0,1,.27,1c.17.65.31,1.29.43,1.88,0,.3.11.59.16.87.1.56.17,1.08.24,1.54A38.65,38.65,0,0,1,1119.44,551.54Zm15.31,2.9c0-.24.07-.5.11-.77s.09-.54.15-.83.12-.59.17-.9.15-.62.22-.94.16-.65.25-1a8.19,8.19,0,0,1,.23-.81c1-3.27,2.55-6.86,5.22-9.28a23.06,23.06,0,0,1,8.07-4.54c.3-.11.61-.2.9-.29.63-.2,1.25-.37,1.83-.51,1-.25,1.94-.43,2.7-.55a46.27,46.27,0,0,1-.95,5.75c0,.16-.07.32-.11.47-.13.53-.27,1-.43,1.57a17.13,17.13,0,0,1-3.66,7.14l-.32.32a15.56,15.56,0,0,1-3.33,2.25,28.76,28.76,0,0,1-3.94,1.6c-.67.22-1.32.41-2,.59a49.82,49.82,0,0,1-5.19,1.07C1134.71,554.68,1134.72,554.57,1134.75,554.44Z"/><path class="cls-6" d="M944,463.41a40.08,40.08,0,0,0-3.79,2.31l-.78-7.61-.54-5.27-2-19.5a1.13,1.13,0,0,0-.58-.88,1.09,1.09,0,0,0-1,0l-4.1,2.1h0l-4.94-2,7.28-3.72a5.14,5.14,0,0,1,7.38,4.09l1.87,18.13.54,5.27Z"/><path class="cls-6" d="M950.75,529.08a2,2,0,1,1-4,.41l-4.63-45,.69.06c.64,0,1.3.06,2,.06l1.36,0h0Z"/><path class="cls-2" d="M987.33,535a42.1,42.1,0,0,1-8-.17c-7.78-.83-12.22-3-12.52-3.91.43-4,4.54-6.95,9.82-7.54C979.63,528.53,983.27,532.52,987.33,535Z"/><path class="cls-2" d="M1023.88,538.54c-.56.89-5.34,2-13.06,1.2a36.74,36.74,0,0,1-10.09-2.33,20.19,20.19,0,0,0,7.74-3.62,28.26,28.26,0,0,0,5.6-5.19,15.11,15.11,0,0,1,6.94,3.48A7.79,7.79,0,0,1,1023.88,538.54Z"/><path class="cls-2" d="M995.91,470.12,994.25,477a2.07,2.07,0,0,1-2.42,1.54l-8-1.59a2.06,2.06,0,0,1-1.65-1.81l-.76-7.37A60.45,60.45,0,0,0,995.91,470.12Z"/><path class="cls-2" d="M971.92,396a47.3,47.3,0,0,0-14.18,10.75,10.9,10.9,0,0,1-.08-1.29,10.29,10.29,0,0,1,10.28-10.27A10.14,10.14,0,0,1,971.92,396Z"/><path class="cls-2" d="M1037,375.87a7.7,7.7,0,1,1-7.69-7.7A7.7,7.7,0,0,1,1037,375.87Z"/><path class="cls-2" d="M1027.32,488.84a46.47,46.47,0,0,1-1.49,12.15,28,28,0,0,1-1.37,3.93,10.75,10.75,0,0,1-3.37,4.67,2.66,2.66,0,0,1-1.47.51l-.24,0a1.9,1.9,0,0,1-.46-.1c-2.25-.76-4.89-5.05-6.19-12-.23-1.23-.41-2.54-.55-3.94-.16-1.64-.25-3.38-.25-5.23v-.17c0-13.07,4.49-21.09,7.69-21.09a3.12,3.12,0,0,1,2,.92,7.37,7.37,0,0,1,.86.89,13.7,13.7,0,0,1,1.64,2.64,0,0,0,0,1,0,0,32,32,0,0,1,2.63,9l.09.66a50,50,0,0,1,.44,5.31c0,.34,0,.69,0,1S1027.32,488.59,1027.32,488.84Z"/><path class="cls-6" d="M974.32,425.34c0,4.71-2.92,8.52-6.52,8.52s-6.51-3.81-6.51-8.52a9.77,9.77,0,0,1,2.14-6.3,6.29,6.29,0,0,1,1.88-1.56,5.08,5.08,0,0,1,5.06,0h0a6.45,6.45,0,0,1,1.86,1.58A9.83,9.83,0,0,1,974.32,425.34Z"/><path class="cls-6" d="M1001.27,430.7c0,.35,0,.7,0,1a9,9,0,0,1-.21,1.38,3.9,3.9,0,0,1-.14.59c-.94,3.52-3.51,6-6.52,6a6.64,6.64,0,0,1-5.69-3.89h0a9.22,9.22,0,0,1-.74-1.83,9.33,9.33,0,0,1-.42-2.14s0,0,0-.05a10.55,10.55,0,0,1-.06-1.13c0-5,3.09-9,6.92-9,3.39,0,6.21,3.19,6.8,7.39a6.18,6.18,0,0,1,.07.62A8.77,8.77,0,0,1,1001.27,430.7Z"/><path class="cls-3" d="M995.23,453.11a24.15,24.15,0,0,1-18.71,1.15l-.43-.16a18,18,0,0,1-1.79-.75l-.42-.19c-.36-.17-.7-.35-1-.54l-.4-.22a23.21,23.21,0,0,1-8.51-8.58,2,2,0,1,1,3.56-1.83,19.39,19.39,0,0,0,6.5,6.66,3.24,3.24,0,0,0,.35.21c.41.25.83.48,1.28.7l.2.1c.6.28,1.19.52,1.78.73l.39.14a20.33,20.33,0,0,0,15.3-.92,2,2,0,0,1,1.94,3.5Z"/><path class="cls-3" d="M1158.42,176.48l-101-46.67a5.31,5.31,0,0,0-7.55,4.82V348.7a5.35,5.35,0,0,0,3.08,4.83L1088.53,370a5.49,5.49,0,0,0,2.23.48,5.27,5.27,0,0,0,2.87-.83,5.33,5.33,0,0,0,2.46-4.49V290.52a1.76,1.76,0,0,1,2.48-1.61l23.88,10.64a5.32,5.32,0,0,0,7.49-4.85V253.8a5.34,5.34,0,0,0-3.16-4.86l-29.64-13.21a1.79,1.79,0,0,1-1.05-1.62V203.56a1.76,1.76,0,0,1,2.49-1.61L1154,227.42a5.32,5.32,0,0,0,7.54-4.84V181.31A5.35,5.35,0,0,0,1158.42,176.48Zm-.46,46.1a1.75,1.75,0,0,1-.82,1.49,1.73,1.73,0,0,1-1.69.11l-55.38-25.46a5.32,5.32,0,0,0-7.54,4.84v30.55a5.32,5.32,0,0,0,3.16,4.86l29.64,13.21a1.79,1.79,0,0,1,1.05,1.62v40.9a1.71,1.71,0,0,1-.81,1.47,1.73,1.73,0,0,1-1.68.14L1100,285.66a5.32,5.32,0,0,0-7.49,4.86v74.61a1.76,1.76,0,0,1-2.5,1.61l-35.58-16.44a1.76,1.76,0,0,1-1-1.6V134.63a1.79,1.79,0,0,1,1.76-1.77,1.82,1.82,0,0,1,.75.17l101,46.67a1.81,1.81,0,0,1,1,1.61Z"/><path class="cls-3" d="M1005.21,322.65,949.34,82.74a5.31,5.31,0,0,0-3-3.64L921.87,67.76a5.42,5.42,0,0,0-4.46,0l-.11.06-23,10.64a5.31,5.31,0,0,0-2.95,3.63l-56,240.57a5.34,5.34,0,0,0,5.17,6.54,5.41,5.41,0,0,0,2.25-.5l40.94-18.92a5.34,5.34,0,0,0,2.94-3.63L896.88,262a1.7,1.7,0,0,1,1-1.19l21.66-10a1.76,1.76,0,0,1,1.49,0l21.63,10a1.82,1.82,0,0,1,1,1.21l10.29,44.2a5.33,5.33,0,0,0,3,3.64l40.91,18.9a5.35,5.35,0,0,0,7.57-4.82A5.15,5.15,0,0,0,1005.21,322.65Zm-4.07,2.57a1.72,1.72,0,0,1-1.85.24l-40.92-18.9a1.76,1.76,0,0,1-1-1.21l-10.29-44.2a5.35,5.35,0,0,0-3-3.63l-21.64-10a5.37,5.37,0,0,0-4.47,0l-21.68,10a5.29,5.29,0,0,0-3,3.63l-10.29,44.16a1.75,1.75,0,0,1-1,1.2l-40.93,18.92a1.76,1.76,0,0,1-2.45-2l56-240.59a1.72,1.72,0,0,1,1-1.19L918.88,71,919,71a1.8,1.8,0,0,1,1.42,0l24.52,11.33a1.8,1.8,0,0,1,1,1.21l55.87,239.91A1.72,1.72,0,0,1,1001.14,325.22Z"/><path class="cls-3" d="M619.18,358.82c11.91-5.5,22.87-15.08,30.84-27s12.37-25.26,12.37-37.6V251.47c0-15.5-6.81-28.74-18.68-36.34-9.85-6.29-22.19-8-34.77-4.75l-.15.06a.85.85,0,0,0-.17.06l-81.45,37.65a6.76,6.76,0,0,0-3.91,6.12V465.78a6.74,6.74,0,0,0,6.73,6.75,6.86,6.86,0,0,0,2.84-.62l32.72-15.13a6.76,6.76,0,0,0,3.92-6.11V388.18a3.18,3.18,0,0,1,5.44-2.25l42,42.22a6.79,6.79,0,0,0,7.6,1.37l31.63-14.63A6.74,6.74,0,0,0,658.12,404L618.26,364a3.11,3.11,0,0,1-.88-2.8A3.15,3.15,0,0,1,619.18,358.82Zm-3.45,7.65,39.87,40.06a3.17,3.17,0,0,1-.92,5.13l-31.62,14.62a3.19,3.19,0,0,1-3.59-.64l-42-42.22a6.73,6.73,0,0,0-11.51,4.76v62.49a3.2,3.2,0,0,1-1.86,2.89l-32.72,15.12a3.18,3.18,0,0,1-4.52-2.9V254.27a3.16,3.16,0,0,1,1.84-2.88L610,213.8c11.55-3,22.84-1.41,31.81,4.32,10.83,6.94,17,19.08,17,33.35v42.76c0,11.64-4.17,24.29-11.76,35.62A77.56,77.56,0,0,1,633.77,345a67.06,67.06,0,0,1-16.08,10.57,6.75,6.75,0,0,0-2,10.88Z"/><path class="cls-3" d="M1395.48,429.07a40.24,40.24,0,0,0,14.52-5.78c11.83-7.65,18.62-20.92,18.62-36.4V344.14c0-22.84-15-47.81-36.54-60.72l-.13-.07-.09-.05-90.54-41.84a5.31,5.31,0,0,0-7.55,4.82V461.15a5.35,5.35,0,0,0,3.08,4.83l35.58,16.44a5.32,5.32,0,0,0,7.55-4.84V428.47a1.76,1.76,0,0,1,3.41-.63l26.4,70.17a5.28,5.28,0,0,0,2.75,2.95l46,21.27a5.41,5.41,0,0,0,2.26.5,5.34,5.34,0,0,0,5-7.21l-31.64-84.1a1.72,1.72,0,0,1,.12-1.47A1.8,1.8,0,0,1,1395.48,429.07Zm-4.68,3.6,31.64,84.1a1.77,1.77,0,0,1-2.39,2.23l-46-21.26a1.77,1.77,0,0,1-.9-1l-26.41-70.17a5.25,5.25,0,0,0-4.94-3.45,5.61,5.61,0,0,0-1,.09,5.26,5.26,0,0,0-4.37,5.24v49.11a1.76,1.76,0,0,1-2.5,1.61l-35.57-16.44a1.76,1.76,0,0,1-1-1.6V246.28a1.74,1.74,0,0,1,.81-1.48,1.78,1.78,0,0,1,1.7-.12l90.5,41.84c20.46,12.31,34.74,36,34.74,57.62v42.75c0,14.25-6.2,26.43-17,33.42a36.8,36.8,0,0,1-13.25,5.26,5.32,5.32,0,0,0-4,7.1Z"/><path class="cls-3" d="M376.3,332.4a7.65,7.65,0,0,0-10.38-9.59l-37.48,17.32a7.68,7.68,0,0,0-4,4.33l-31.31,86a1.12,1.12,0,0,1-2.18-.38V369.4a7.65,7.65,0,0,0-10.85-6.94l-30.71,14.2A7.66,7.66,0,0,0,245,383.6V592.73a7.66,7.66,0,0,0,7.63,7.65,7.77,7.77,0,0,0,3.22-.71l30.71-14.2a7.67,7.67,0,0,0,4.43-6.93V516.36a1.57,1.57,0,0,1,2.93-.78l26.15,46.2a7.62,7.62,0,0,0,9.79,3.21l28.67-12.88A7.65,7.65,0,0,0,362,541.37l-37.23-65.79a4,4,0,0,1-.27-3.43ZM321.71,477.34,359,543.12a4.07,4.07,0,0,1-1.89,5.74l-28.67,12.89a4.09,4.09,0,0,1-5.24-1.72L297,513.83a5.12,5.12,0,0,0-9.58,2.53v62.18a4.1,4.1,0,0,1-2.37,3.7l-30.71,14.2a4.09,4.09,0,0,1-5.81-3.71V383.6a4.1,4.1,0,0,1,2.38-3.71l30.71-14.2a4.07,4.07,0,0,1,1.72-.39,4.12,4.12,0,0,1,2.2.66,4,4,0,0,1,1.88,3.44v60.72a4.68,4.68,0,0,0,9.07,1.6l31.31-86.05a4.11,4.11,0,0,1,2.12-2.31L367.42,326a4.08,4.08,0,0,1,5.54,5.13L321.2,470.92A7.65,7.65,0,0,0,321.71,477.34Z"/><path class="cls-3" d="M517.17,472.52l-2.37-9.47L468,285.7a7.63,7.63,0,0,0-10.59-5l-36.24,16.75a7.65,7.65,0,0,0-4.26,5.35L367.45,535.15a7.64,7.64,0,0,0,10.76,8.49L408,529.47a7.68,7.68,0,0,0,4.19-5.31l14.63-68.33a4.06,4.06,0,0,1,2.33-2.89l29.94-13.36A2.09,2.09,0,0,1,462,441l12.64,48.21a7.64,7.64,0,0,0,10.59,5L513,481.32A7.65,7.65,0,0,0,517.17,472.52Zm-5.68,5.56L483.7,490.93a4,4,0,0,1-3.46,0,4.08,4.08,0,0,1-2.21-2.64L465.4,440.06a5.67,5.67,0,0,0-7.78-3.74L427.68,449.7a7.64,7.64,0,0,0-4.36,5.38l-14.63,68.34a4.09,4.09,0,0,1-2.24,2.84l-29.77,14.17a4.09,4.09,0,0,1-5.75-4.54l49.46-232.34a4.13,4.13,0,0,1,2.28-2.86l36.24-16.75a4,4,0,0,1,1.72-.38,4.09,4.09,0,0,1,3.95,3l46.78,177.34,2.37,9.44A4.09,4.09,0,0,1,511.49,478.08Zm-59.07-88-4.66-23.38a3.59,3.59,0,0,0-7.07.1l-4.91,28.8a3.62,3.62,0,0,0,3.57,4.23,3.46,3.46,0,0,0,1.41-.29l8.55-3.6A5.28,5.28,0,0,0,452.42,390.07Zm-4.5,2.59-8,3.38a.38.38,0,0,1-.53-.42l4.71-27.6a.16.16,0,0,1,.32,0l4.53,22.74A1.72,1.72,0,0,1,447.92,392.66Z"/><path class="cls-3" d="M1278.88,444.28,1229.49,212.1a7.66,7.66,0,0,0-4.26-5.35L1189,190a7.63,7.63,0,0,0-10.59,5l-47.8,181.08-1.22,5.42a7.65,7.65,0,0,0,4.2,8.8l27.78,12.84a7.66,7.66,0,0,0,10.6-5l12.5-47.89a2.06,2.06,0,0,1,1.13-1.36,2,2,0,0,1,1.75,0l30,13.37a4.08,4.08,0,0,1,2.33,2.88l14.56,68.17a7.72,7.72,0,0,0,4.18,5.33l29.77,14.15a7.64,7.64,0,0,0,10.76-8.48Zm-5,4.79a4,4,0,0,1-4.28.48l-29.77-14.15a4.12,4.12,0,0,1-2.24-2.86l-14.55-68.16a7.68,7.68,0,0,0-4.36-5.4l-30-13.37a5.59,5.59,0,0,0-2.3-.49,5.79,5.79,0,0,0-2.44.55,5.66,5.66,0,0,0-3,3.67l-12.5,47.88a4.1,4.1,0,0,1-5.67,2.68l-27.78-12.85a4.11,4.11,0,0,1-2.24-4.75l1.21-5.39,47.8-181a4.08,4.08,0,0,1,5.66-2.67L1223.73,210a4.12,4.12,0,0,1,2.29,2.86L1275.4,445A4,4,0,0,1,1273.93,449.07Zm-63.3-144.2-4.91-28.8a3.54,3.54,0,0,0-3.5-3h-.06a3.53,3.53,0,0,0-3.52,2.89L1194,299.35a5.29,5.29,0,0,0,3.11,5.87l8.55,3.6a3.66,3.66,0,0,0,3.66-.5A3.65,3.65,0,0,0,1210.63,304.87Zm-4.23.41-7.92-3.34a1.71,1.71,0,0,1-1-1.89s3.35-16.83,4.39-21.94a.28.28,0,0,1,.56,0L1207,304.8A.44.44,0,0,1,1206.4,305.28Z"/><path class="cls-3" d="M826.1,114a7.62,7.62,0,0,0-7.34-.5l-36.1,16.69a7.68,7.68,0,0,0-4,4.49l-31.44,93.21a1.52,1.52,0,0,1-2.86.08l-24.25-60a7.63,7.63,0,0,0-10.29-4.08L677.08,179a7.67,7.67,0,0,0-4.43,6.93l-.26,209.26a7.61,7.61,0,0,0,10.84,6.94l29.95-13.85a7.61,7.61,0,0,0,4.44-6.91l.25-97.67a.78.78,0,0,1,1.5-.29l8.79,21.81a7.64,7.64,0,0,0,10.3,4.08l26.32-12.17a7.69,7.69,0,0,0,4-4.42l13.63-39.2a1.28,1.28,0,0,1,2.49.41l-.22,89.34a7.64,7.64,0,0,0,10.85,7l29.37-13.59a7.66,7.66,0,0,0,4.44-6.92l.27-209.25A7.63,7.63,0,0,0,826.1,114Zm-.31,215.7a4.1,4.1,0,0,1-2.37,3.7L794,346.94a4.09,4.09,0,0,1-5.8-3.72l.22-89.34a4.84,4.84,0,0,0-9.4-1.6l-13.63,39.21a4.19,4.19,0,0,1-2.14,2.37L737,306a4,4,0,0,1-3.21.09,4,4,0,0,1-2.3-2.27L722.67,282a4.34,4.34,0,0,0-8.36,1.6l-.25,97.67A4.08,4.08,0,0,1,711.7,385l-30,13.86a4.08,4.08,0,0,1-5.79-3.72l.27-209.26a4.08,4.08,0,0,1,2.36-3.7l32.7-15.12a4.13,4.13,0,0,1,1.72-.37,4.37,4.37,0,0,1,1.5.28,4,4,0,0,1,2.28,2.28l24.26,60a5.08,5.08,0,0,0,9.52-.29L782,135.78a4.06,4.06,0,0,1,2.16-2.4l36.11-16.7a4.09,4.09,0,0,1,5.8,3.72Z"/><path class="cls-3" d="M1600.11,385a7.67,7.67,0,0,0-4.44-6.92L1563,362.91a7.64,7.64,0,0,0-10.29,4.07l-24.24,60a1.53,1.53,0,0,1-1.46,1,1.51,1.51,0,0,1-1.41-1l-31.44-93.2a7.68,7.68,0,0,0-4-4.5L1454,312.52a7.65,7.65,0,0,0-10.84,7l.27,209.26a7.67,7.67,0,0,0,4.43,6.93l29.38,13.57a7.62,7.62,0,0,0,10.84-7l-.21-89.33a1.28,1.28,0,0,1,2.48-.43L1504,491.73a7.71,7.71,0,0,0,4,4.42l26.32,12.17a7.63,7.63,0,0,0,10.29-4.08l8.79-21.81a.73.73,0,0,1,.87-.48.75.75,0,0,1,.64.78l.24,97.65a7.66,7.66,0,0,0,4.44,6.92l30,13.85a7.64,7.64,0,0,0,10.85-6.94Zm-5.18,212.71a4,4,0,0,1-3.92.26l-30-13.84a4.1,4.1,0,0,1-2.37-3.71l-.24-97.65a4.3,4.3,0,0,0-3.52-4.25,4.19,4.19,0,0,0-.86-.09,4.29,4.29,0,0,0-4,2.72l-8.79,21.81a4.09,4.09,0,0,1-5.51,2.18l-26.31-12.16a4.15,4.15,0,0,1-2.15-2.37l-13.63-39.2a4.83,4.83,0,0,0-9.39,1.6l.21,89.33a4.09,4.09,0,0,1-4.07,4.1,4.05,4.05,0,0,1-1.72-.38l-29.39-13.58a4.12,4.12,0,0,1-2.37-3.71l-.26-209.25a4.07,4.07,0,0,1,5.79-3.71l36.12,16.69a4.16,4.16,0,0,1,2.16,2.4l31.44,93.21a5.08,5.08,0,0,0,9.52.27l24.25-60a4.09,4.09,0,0,1,5.5-2.17l32.7,15.11a4.1,4.1,0,0,1,2.37,3.71l.27,209.25A4,4,0,0,1,1594.93,597.66Z"/><path class="cls-3" d="M1367,320.35l-23-10.7a5.32,5.32,0,0,0-7.57,4.82v45.21a5.35,5.35,0,0,0,3.14,4.86l36.84,16.54a5.46,5.46,0,0,0,5.27-.39,5.49,5.49,0,0,0,2.52-4.64V344.14C1384.19,336.87,1376.51,324.64,1367,320.35Zm13.65,55.7a1.93,1.93,0,0,1-.89,1.66,2,2,0,0,1-1.88.14L1341,361.3a1.78,1.78,0,0,1-1-1.62V314.47a1.71,1.71,0,0,1,.81-1.48,1.74,1.74,0,0,1,1-.29,1.86,1.86,0,0,1,.75.17l22.75,10.59.28.13c8,3.6,15.11,14.49,15.11,20.55Z"/><path class="cls-3" d="M933.53,202.91l-8.74-37.53a4.66,4.66,0,0,0-9.07,0L907,202.92a3.75,3.75,0,0,0,3.65,4.59,3.83,3.83,0,0,0,1.57-.34l7.32-3.4a1.76,1.76,0,0,1,1.49,0l7.32,3.38a3.75,3.75,0,0,0,5.21-4.24Zm-3.52,1a.18.18,0,0,1-.21,0l-7.3-3.36a5.29,5.29,0,0,0-4.47,0l-7.33,3.38a.15.15,0,0,1-.2,0,.17.17,0,0,1-.06-.19l8.74-37.53a1.11,1.11,0,0,1,2.15,0l8.74,37.54A.15.15,0,0,1,930,203.9Z"/><path class="cls-3" d="M684.52,571.65c-5.3,0-8.52,2.08-8.52,3s3.22,3,8.52,3,8.51-2.09,8.51-3S689.82,571.65,684.52,571.65Z"/><path class="cls-2" d="M892.77,438.8l12.92-5.47a14.7,14.7,0,0,1,11.19-.15l4.56,1.81,4.95,2,4.45,1.76a2.25,2.25,0,0,1,1.45,2.13,2.34,2.34,0,0,1-1.45,2.23l-14.19,6h0a1.44,1.44,0,0,1-1.08,0l-22.76-9A.69.69,0,0,1,892.77,438.8Z"/></svg>